<svg width="524" height="757" fill="none" xmlns="http://www.w3.org/2000/svg"><path fill-rule="evenodd" clip-rule="evenodd" d="M307.075 746.707c-.446 1.654-.422-1.801-.448-2.561.446-1.651.418 1.804.448 2.561M455.257 740.919l-1.849.064-.057-1.634c1.206-.138 1.805.424 1.906 1.57M143.996 725.554c-1.41-.298-.479-1.775.677-1.643.028.817-.983.553-.677 1.643M302.758 694.026c.058-2.16 5.572-2.136 6.308-.693.039 3.297-5.615 2.931-6.308.693M364.623 675.062c1.26.907 1.183 3.333 3.328 3.239-.54 1.903-.034 2.609.552 4.207-1.569 3.886-3.818 6.998-8.612 5.786-5.462-1.394-4.831-9.82-1.269-13.023 1.981-1.264 4.516.729 6.001-.209M237.026 693.688c-.115.79-.489-.231-.393-.79.107-.776.486.254.393.79M338.423 675.794c3.42 11.25-9.761 10.34-8.842 2.877.399-3.265 5.597-7.131 8.842-2.877M290.763 673.759c5.636 3.401-2.651 8.972-3.269 3.454-.244-2.002 1.241-2.943 3.269-3.454M195.979 670.44c2.51 3.355.655 7.471-2.484 8.605-1.281.291-1.847-.235-2.79-.333-6.424 4.16-13.289-2.614-11.058-9.424.719-2.145 6.699-6.207 10.553-5.033 2.807-2.281 8.721-3.067 8.818 1.824.037 2.235-1.767 2.529-3.039 4.361M366.011 657.329c2.215-.639 4.125-.657 5.902.659.613.444 1.003 1.675 1.65 2.082 2.726 1.666 7.109 1.513 7.984 4.421-.05 3.17-2.319 3.7-5.356 3.588-.978-.017-.942-.881-2.015-1.211-.583-.159-1.306.578-1.936.501-2.54-.28-6.086-3.666-6.429-4.904-.569-2.022.358-3.167.2-5.136M313.295 661.927l-1.102.039c-.304-1.536.278-2.197.253-3.456.745.627.861 1.959.849 3.417M414.187 656.302c-.668.069-.798-.446-1.488-.333-.146-.871-.001-1.464.301-1.92 1.393.07 1.547 1.233 1.187 2.253M251.852 645.982c-.241-.455.278-2.834-1.247-3.029 3.412-5.851 9.826 2.134 7.463 6.309.431 1.007 1.37 1.366 1.254 3.002-2.973 3.821-5.737-3.213-7.44-5.415l.177-.452-.207-.415zM248.029 645.101l.603.205c-2.747 2.43-4.39 7.127-8.945 6.513-2.25-.317-3.13-2.588-5.289-3.802 1.468-1.634-.368-2.72.238-4.424-4.654-3.047-.373-11.063 5.615-9.938 3.565.7 5.575 6.252 7.833 7.251-.878 1.165-.052 3.112.532 3.949l-.587.246zM369.987 632.933c-1.053 2.842-3.318-.821-5.535-.673-1.359 2.367 1.066 4.102 2.166 5.103.84-.383 2.108-.327 2.303-1.386 1.291 2.243 4.593 3.033 4.526 5.858-.139 5.585-9.363 3.885-9.898-1.796-2.529-.312-4.487-1.295-7.124-1.486-2.544-4.172-9.232-3.456-9.78-9.967 3.296-4.481 11.387-1.153 14.592 1.208 2.825-2.821 6.721-.218 8.326 2.288l-.178.652.602.199zM373.398 631.242l-.578-.196c.612-3.881-1.585-4.129-1.049-7.786.16-1.166 1.117-1.689 1.821-3.519.985-2.527 2.282-5.642 5.228-6.266 6.366-1.3 13.131 6.439 11.404 14.363-.038 1.704 1.708 1.274 1.668 2.96-.908.185-1.602.595-2.304.971.593 3.962-3.27 3.288-3.683 6.2-1.641-.432-3.352-.338-4.648.598-1.748-1.066-3.604-2.015-5.923-2.386-.788-1.318-1.427-2.814-2.085-4.274l.149-.665zM258.828 638.366c-5.445 2.256-8.779-7.703-4.602-8.686 3.955-.956 4.668 5.995 4.602 8.686" fill="#5900FF"/><path fill-rule="evenodd" clip-rule="evenodd" d="M229.34 635.001c.3-.387 1.041-.291 1.111-.911 5.045.713-.654 6.749-1.111.911M231.318 631.539c1.317-2.456.104-5.563.491-8.314.573-4.135 3.15-7.199 6.395-8.538.66.577 1.307 1.18 2.045 1.681-.332 7.343-1.745 12.56-5.733 16.829-1.483-.07-2.271-.938-3.198-1.658M395.86 612.853c-.972.13-1.599-.1-1.521-1.174.307-.325.814-.453 1.464-.446l.057 1.62z" fill="#5900FF"/><mask id="a" maskUnits="userSpaceOnUse" x="516" y="573" width="2" height="4"><path fill-rule="evenodd" clip-rule="evenodd" d="M516.908 576.115l-.08-2.295.725-.026.08 2.295-.725.026z" fill="#fff"/></mask><g mask="url(#a)"><path fill-rule="evenodd" clip-rule="evenodd" d="M517.331 576.1c-1.414-1.178 1.083-1.408 0 0z" fill="#5900FF"/></g><path fill-rule="evenodd" clip-rule="evenodd" d="M312.369 574.564c.848.382.214 2.391.479 3.413l-.733.026c-1.461.284-.512-2.081-.855-3.012l.682.166.427-.593zM310.411 571.507c-.114.776-.485-.25-.394-.791.109-.792.484.236.394.791" fill="#5900FF"/><mask id="b" maskUnits="userSpaceOnUse" x="516" y="558" width="2" height="3"><path fill-rule="evenodd" clip-rule="evenodd" d="M516.359 560.393l-.08-2.295.673-.023.081 2.295-.674.023z" fill="#fff"/></mask><g mask="url(#b)"><path fill-rule="evenodd" clip-rule="evenodd" d="M516.731 560.38c-1.247-.93.955-1.984 0 0z" fill="#5900FF"/></g><path fill-rule="evenodd" clip-rule="evenodd" d="M300.151 567.943c-.624-.365-.462-1.626-.825-2.268.943-.005.783 1.257.825 2.268M299.105 567.98c-.653-.334-.855-1.179-.807-2.27.539.441.735 1.288.807 2.27M210.02 560.436c-.742-5.09 1.986-6.864 5.299-8.066.942 1.086 1.397 2.701 1.864 4.319-2.044 1.594-3.965 4.503-7.163 3.747M308.855 556.774c-.393 1.273-.452-1.026-.43-1.541.384-1.268.456 1.028.43 1.541M296.593 556.5c-.988.315.2-1.917-.792-1.595.555-1.34 1.44 1.381.792 1.595M215.625 542.48c-.556 1.135-.88 2.515-3.079 2.229.606-1.241.681-2.972 2.138-3.462l.462.606.479.627zM377.731 497.087c.759-3.01 3.617-9.298 7.196-4.788-.19 1.834-.728 5.442-2.573 7.944-.34.43-1.33.816-2.421.903-.833-1.253-1.543-2.627-2.202-4.059M360.509 483.985c-2.1-.715-4.829-.787-5.378-3.031 2.231-.959 5.045.75 5.378 3.031M465.976 477.081c-1.163.388-1.162-.603-1.872-.75.312-.344.183-1.128.699-1.242 1.126-.191.816 1.297 1.173 1.992M316.021 410.546c3.265 1.064 4.275 5.122 6.209 7.697 1.92 2.578 3.665 4.551 5.417 8.155.807 1.646 1.267 3.263 2.14 4.752 1.48 2.476 3.996 3.75 4.975 6.413-.182 1.079-.25 2.274-1.505 2.248-2.707-1.13-3.116-4.323-4.589-6.862-2.574-4.462-6.421-6.907-7.95-12.452-1.388-3.261-5.209-5.926-4.697-9.951M311.627 436.348c-.303-1.391 1.243-1.496 1.827-.885-.015.897-.906.914-1.827.885M334.265 424.039c-1.894-.066-2.848-1.375-3.274-3.333 1.915 0 3.053 1.053 3.274 3.333M237.031 426.385c-1.025-3.481.173-7.965 2.258-9.27.887 3.304.297 8.503-2.258 9.27M165.101 418.105c4.639.994 11.595-.76 13.902 2.961-5.013-.06-9.535.734-13.857-1.66l.178-.654-.223-.647zM90.174 424.165c-1.405.151-1.932-2.294-1.227-3.399 1.42-.134 1.935 2.293 1.227 3.399M308.719 399.746l-1.107.039c-.223-.243-.933-1.902-.071-2.027 1.119-.181.811 1.291 1.178 1.988M304.89 397.781c-1.831-1.314-3.892-2.376-4.274-5.516 1.901-.744 4.952 2.98 4.274 5.516M115.857 398.086c-.656-.071-.881-.645-.802-1.592l1.116-.039c.185.846-.219 1.092-.314 1.631M304.387 386.836c-.062.94-1.619.273-1.86.065l-.057-1.622 1.478-.052c.06.641-.111 1.532.439 1.609M292.126 362.549c-1.003-.472-1.172-1.212-.828-2.269.891.178 1.591 1.421.828 2.269M332.622 349.293c1.042.042 1.44 2.708 1.094 3.408-.926-.541-2.09-.73-2.043-2.877l.597.231.352-.762zM107.95 332.252l-1.107.039c.069-1.534-.938-2.304-.12-3.442.544.937 1.935 2.249 1.227 3.403M47.443 323.869c-1.976.112-3.477-.219-3.183-2.172 2.028-.189 3.084.552 3.183 2.172M276.918 313.304c-.321-1.306.707-.984.69-1.944 4.788-.621 1.265 6.305-.69 1.944M16.581 319.703l-.748.026c-.21-.845.499-.776 1.071-.842-.058.331-.336.421-.323.816M186.735 308.514c-2.233-.41-2.139-3.303-2.573-5.655 2.922-.102 4.176 3.73 2.573 5.655M287.928 290.921c.121.641-1.992.637-1.14-.367-.131.161 1.14.385 1.14.367M318.699 276.622l-1.116.039c-.132-.641.32-.707.33-1.227l.744-.026.042 1.214zM377.122 261.596c2.124-3.202 6.669-.407 7.107 2.016 1.172 6.889-8.848 5.687-7.107-2.016M278.952 270.195c-.03.998-1.255.158-1.486.052.198-1.214.809.367 1.486-.052M66.45 267.555c.09-.945.163-1.905 1.419-1.685.202 1.27-.254 1.833-1.419 1.685M454.115 238.314c-1.409-1.176 1.082-1.387 0 0zM213.025 245.213c-.361 1.684-1.265-1.782-1.102.464-.435-.065-.344-.742-.418-1.21l1.118-.039c-.049.473.107.72.402.785M59.16 249.969c-2.339.278-4.04-.22-4.928-1.754.634-2.984 4.416-.936 5.282.302l-.587.584.233.868zM318.449 239.903l-1.116.039-.042-1.196c.807-.106 1.193.29 1.158 1.157M260.291 235.162c-.113 1.118-1.168.073-.758-.78 2.177-.262-.159.575.758.78M113.795 231.791c.506.092.344.992.432 1.602-.865-.096-.889-1.067-.432-1.602" fill="#5900FF"/><mask id="c" maskUnits="userSpaceOnUse" x="7" y="232" width="5" height="4"><path fill-rule="evenodd" clip-rule="evenodd" d="M7.599 235.018l-.08-2.295 3.754-.131.08 2.295-3.754.131z" fill="#fff"/></mask><g mask="url(#c)"><path fill-rule="evenodd" clip-rule="evenodd" d="M7.58 233.26c1.372-.852 2.671.02 3.744.687-.198 1.643-4.178 1.139-3.743-.687" fill="#5900FF"/></g><path fill-rule="evenodd" clip-rule="evenodd" d="M20.79 218.817l-1.103.038c.663-.702-.339-.966-.08-2.295.483.65 1.28.964 1.182 2.257M14.369 217.475c-1.272.886-4.327.841-5.302-.529.805-1.852 3.522-1.079 4.888-.171l.209.349.205.351z" fill="#5900FF"/><mask id="d" maskUnits="userSpaceOnUse" x="0" y="2" width="480" height="696"><path fill-rule="evenodd" clip-rule="evenodd" d="M479.656 681.302L455.94 2.143.023 18.064l23.716 679.159 455.917-15.921z" fill="#fff"/></mask><g mask="url(#d)" fill-rule="evenodd" clip-rule="evenodd" fill="#5900FF"><path d="M399.067 204.558l-.042-1.21-1.118.039.042 1.21 1.118-.039zM129.494 209.095c-1.144 1.044-4.15 1.262-4.259-1.06 1.336-.823 2.22-.066 3.838-.134l-.169.757.59.437zM348.075 194.795l-.819.029c-2.748-.335-4.596-3.273-6.754-5.055-1.94-1.631-5.585-2.875-5.135-6.018 4.576.682 5.568 5.542 10.877 5.377 1.281 1.649 2.528 2.844 1.831 5.667M452.865 184.541c1.49.047 1.971 1.482 3.222 1.862-.314 2.08-2.887 2.108-3.171-.392l.171-.738-.222-.732zM114.2 141.878c.943.123.086 1.573-.677 1.235l-.042-1.21c.339.236.665.466.719-.025"/><path d="M114.238 142.098c-.643-.088-.857-.675-.776-1.611.501.251.713.841.776 1.611M124.882 129.134c-1.45-1.571-.442-6.043-3.362-5.924-.648.472-.375 1.855-.719 2.617-1.948.354-2.355-1.103-3.604-1.596-1.435.47-1.315 2.537-3.485 2.264-.089-1.219.131-2.797-.507-3.412-2.03-.132-2.345 1.506-3.896 1.86-.412-1.004-1.501-1.235-1.286-2.967-.89-.306-1.586-.848-2.801-.772-1.116-5.487-8.714-6.36-6.76-12.682-.209-1.891-3.198-2.317-1.762-4.681-2.236.833.857-3.01-.926-4.284-.437-1.02-1.733.913-1.64-1.235 1.938.303 2.212-1.077 2.695-2.23.242-1.486-1.624-.514-1.25-2.118.715-.66 2.028-.706 2.313-1.808.282-1.231-.609-1.1-.483-2.12l.597-.258-.22-.628.377-.013c1.26-.545 1.308-2.557.66-3.927 1.613.03 4.446-.531 3.812-3.993 2.026 1.566 2.54-2.033 4.34-.572 1.084-.69 1.614-1.95 3.083-2.267-.092.687.394.739.44 1.272 1.199-1.417 4.99-.189 5.876-1.927l.38.206.413.2c.394-.013.33.524.424.839.907 1.776 4.791.086 5.608 1.949.342.085.369-.165.395-.432l.588.2.175-.647c.557 1.117 2.659.481 3.609 1.162.328 1.293-1.053.86-.718 2.17l1.176-.041-.156.79.6.501c.209 2.697 5.074 1.663 6.361.643-.373.75.761 4.26-1.848 4.352.63 4.363 5.308 6.342 4.724 10.613-.248 1.328 1.118.797.87 2.127.181 1.836-1.807 1.485-1.868 3.078.976.217 2.714.21 3.622 1.603l-.582.218.213.64c-1.292.651-2.606 1.232-3.884 1.882-.21 1.898 1.206 1.861 1.3 3.382-1.639.478-2.163 1.146-1.466 3.066-.567.841-2.6.157-3.137.962l.015.454-.574.521.217.794c-1.604.007-1.637 1.633-1.451 3.483-2.66-1.346-4.526.256-5.866 2.364-.063 1.725.798 2.364.556 4.281l-.604-.194-.584.235zM98.972 125.841c-1.095.006-1.07-2.373.303-2.025.146.937-.009 1.539-.303 2.025M142.166 119.086c-.356-.429-1.363-.079-1.151-1.171.805-.108 1.185.288 1.151 1.171M367.692 109.154c1.127-.131 1.692.428 1.801 1.559-.437.585-2.069.783-2.117-.319l.521-.491-.205-.749zM43.903 81.592c-.395-.082-.266-.794-.764-.777.12-1.135 1.166-.055.764.777M236.214 681.594c.039-3.174 1.235-9.569 2.045-13.129l.641.197.19-.65c.341-.093.395.159.437.409.599-.391.851-1.109.745-2.189 1.849 5.671.275 10.337-1.543 15.695l-.633-.195-.195.667c-.482-.069-.369-.785-.449-1.304-.453.136-.256.885-.811.905l-.014-.421-.413.015zM274.833 380.541c-.046.965.373 1.37 1.241 1.273.032-.96-.377-1.39-1.241-1.273zm80.523 135.858c1.884-1.15 3.224-2.866 6.269-2.839-.751-2.187-2.743-1.81-4.096-3.318-2.349-2.619-2.896-7.934-7.066-8.466.279 5.092.483 12.292 4.893 14.623zm-71.981 5.994c-.393-.768-.948-1.325-1.655-1.685-2.957 2.346-1.615 8.092-2.332 13.135-.453 3.075.424 6.317.75 9.954.702 8.045-.178 17.753 2.439 24.262-1.023 3.583 1.099 9.387 1.73 15.153 1.155 10.989 1.627 21.845 3.927 32.472 2.526 1.092 4.619 2.71 4.606 6.78-1.098.679-2.69.87-3.512 1.88-.559 2.652 1.706 5.612-.162 6.944-2.598.155-1.911-3.682-2.168-5.145-.767-4.158-1.987-10.465-2.536-15.565-.528-4.704-.605-8.199-1.286-13.849-.676-5.565-2.507-11.581-2.581-16.866-.014-.99.439-1.989.294-3.049-.531-3.728-2.228-7.065-2.367-10.79-.309-7.807-.053-15.499-1.966-21.663-1.412-2.081-1.24-6.474-2.645-7.287 1.322-1.129-.623-3.405-1.034-6.94-.199-1.696.443-3.648.22-4.769-.397-2.129-2.2-3.751-2.549-5.147-1.41-.034-1.272 1.519-2.347 1.822 1.279 2.389 1.744 2.929 2.605 5.566l-2.794.098c-.424-2.233-1.306-3.906-2.572-5.124-2.902-.108-4.9 1.148-5.491 2.807-1.584 4.391 3.543 9.332 3.638 12.89-.693.431-.601 1.643-1.531 1.811-3.74-1.22-.759-4.839-3.438-7.274-.906.28.508.672-.359 1.311-1.56-.335-.269-2.386.299-3.032-1.125-.804-.827-3.282-2.127-3.862-3.465 2.371-1.334 10.379-3.925 13.629 1.002.825-.392 1.702-.313 2.173.586 3.223 5.048 3.641 5.83 7.191 4.515 1.915 7.485 9.854 4.104 14.633 1.126.89 1.984 3.965.587 5.197-2.172.429-2.443-1.366-4.439-1.146-2.255.636-3.286 2.515-4.647 4.064.259 4.06 3.933 5.063 2.726 9.48-4.485 2.521-4.51-4.538-6.262-8.04-.831-1.709-2.24-2.032-2.109-3.402-1.178-1.344-2.622-2.359-3.339-4.241-1.268-.175-2.253-.683-3.243-1.189-2.985 3.314-3.83 6.688-4.802 10.587-.144 1.39.997 1.757-.317 2.205l-.61-.196.212.636-.795.028-.412-.208-.367.235c.05-1.271-.966-1.302-.898-2.589.395-.282.369-1.011 1.152-.883-1.42-.695-.069-1.57-.092-2.612.004-1.659-.998-3.803-.166-4.778-1.855-3.241-2.558-7.83-5.134-10.255.59-2.399-.213-4.264 1.379-6.146-1.701-.142-.51-1.281 1.096-3.077 1.817-2.038 3.863-2.753 8.286-2.451 3.639-5.357 1.752-16.373 7.277-19.807-1.658-.717-2.811-.257-2.094-2.979-2.737.569-4.311 2.325-6.244 3.694-1.474 4.729-1.017 9.793-5.163 12.336.058 1.031-.638 1.307-.313 2.646-3.066 2.015-3.474 6.759-6.039 9.328.081 2.332-.23 4.228-1.828 4.848.027 1.022.734 1.254.495 2.579-3.095 2.881-3.714 8.256-7.211 10.687-.231 1.307-.393 2.681-1.484 3.109-.196 6.76-2.146 9.951-3.879 14.473.253 5.446.295 10.642-1.917 13.542.01 4.49-2.708 6.187-3.66 9.686-3.109 1.699-7.438 2.116-8.817-1.437-.383-5.959 1.082-10.047 2.684-13.988 3.579-2.745 3.605-6.524 4.371-11.905.892-1.803 2.354-3.052 3.032-4.88.957-2.587.296-4.913.531-7.842.252-3.284 1.557-6.894 1.619-10.495.013-1.058-.226-2.065-.106-3.028.184-1.465 1.312-2.986 1.438-4.413.152-1.491-.187-5.226 1.375-6.545-.145-.586-1.012-.339-1.617-.385 3.923-2.094 2.984-6.384 4.402-11.026.291-.939.968-.714 1.154-1.344.61-2.013.158-4.863 2.18-6.152.42-5.454 3.303-9.084 5.514-13.243 1.284-2.411 2.977-5.157 3.704-8.372.651-2.978-.327-5.931.065-9.139.444-3.476 2.756-5.586 4.089-8.837.237-.602-.277-1.545-.076-2.176.714-2.228 3.058-4.519 3.31-7.936-.847-1.272-3.156-.819-3.296-2.939 1.019-.361 2.246-.5 2.742-1.4-.46-1.706-3.149-.819-4.438-1.587-1.631-2.152-.882-3.815.607-5.658 1.641-.41 3.338.457 3.975-.139 1.464-2.006 2.261-4.686 2.521-7.919-2.439-.356-2.552 1.59-4.325 1.901-2.548-.194-2.78-3.073-4.522-4.192-5.672 3.353-8.274 11.516-15.478 14.015-1.672 4.429-5.416 6.775-8.432 9.851-1.232.836-.96 3.208-3.082 3.164-1.112.103-1.031-1.214-1.645-1.7 1.243-3.337 3.955-5.184 5.291-8.447.932-.163 1.619-.577 2.357-.938 2.823-2.174 4.761-5.216 8.548-6.394 2.936-2.449 5.106-5.699 7.683-8.51-.457-2.025.414-2.647.65-3.94-7.86-6.779-5.78 13.675-13.205 10.02 1.459-7.046 6.499-10.426 7.771-17.648 3.301-3.376 4.373-8.952 7.528-12.439-.08-.352-.406-.422-.421-.86l.576-.531-.232-.8c3.38.237 3.297-3.068 5.023-4.514-1.578-5.116-1.932-9.17-.063-13.473-.936-1.47-2.301-2.423-4.462-2.464-2.087-2.983-5.456-4.468-10.133-4.406-.918-1.035-2.431-1.386-3.665-2.053l.586-.526-.231-.785c6.214-.772 8.228 3.343 14.057 2.989-.292-.971-1.522-1.859-.511-3.026 2.125-.848 3.378 2.892 6.476 2.379 3.315-2.923 5.639-6.817 9.242-9.445-.593-.802-1.569-1.212-1.692-2.556l.725.128.459-.606c.944.098.948 1.316 1.655 1.68 3.386-2.684 5.435-6.758 9.672-8.597.503-.878.691-2.104 1.097-3.092 3.583-.106 7.219-.186 8.269-2.889 2.015 1.716 6.447 2.22 9.189.556-2.269-5.779-6.933-8.779-11.96-11.319-1.981.51-1.19 4.078-3.071 3.572.005.131-1.363-2.962.292-3.054-.937-.995-1.611-2.339-1.739-4.275-.937.048-1.194-.72-2.414-.359l-.795.028-.784.027-.03-.859.58-.237-.222-.656.395-.013c.189-4.039-4.21-3.346-2.658-7.724-4.526-.095-2.943 7.535-3.62 10.565-.393 1.752-1.058 2.924-2.255 3.976-3.836-1.18-.402-4.948.146-7.382.739-3.267.35-6.515.485-8.716.831-.164.332-1.631 1.139-1.779-.516-3.322-3.286-4.529-1.86-7.751-.688-.718-2.187-.464-2.838-1.222.001-2.633 1.24-4.044 1.36-6.565-.09-1.683-1.669-1.647-2.471-2.509.472-2.163 1.813-3.457 2.599-5.309.269-1.683-1.927-.458-1.661-2.103.919-2.027 3.352-2.245 2.207-5.315 2.02-.998 3.653-2.425 3.804-5.351-.03-2.023.583.455 1.585-.055 2.512-1.843 4.629-2.797 7.893-2.438 1.107.149.31-1.632 1.125-1.794 1.861.899 3.349 2.922 6.046 1.544 1.448 1.45 3.114 2.667 5.687 2.843.677 1.31 1.162 2.848 2.124 3.845 1.892.488 4.916-.34 5.631 1.541.152 2.102-2.27 1.58-2.266 3.557 2.992 1.313 5.545 3.136 6.606 6.71-.613.633-.92 1.568-2.328 1.38 1.11 5.179 4.252 7.993 5.636 12.857-1.724 1.97-2.798-.156-4.423-.708-1.387 3.731 4.12 3.302 4.621 6.36l-.596.223.208.649c-.606 5.054 4.326 7.213 6.744 10.2l-.574.528.22.788c-3.474.711-3.084-1.598-5.315-3.713-1.757-1.682-4.306-1.235-4.138-4.655a14.368 14.368 0 01-2.855-1.64c-.572.256-.984.675-1.566.932-.85 2.206-2.031 4.074-1.725 7.437-1.339 2.332-1.2 3.591-1.781 6.582-.885.373-2.018.48-2.761.974 1.003 3.721 2.405 6.775 4.334 9.409.631.871 2.328 1.285 2.096 2.984l-.613-.198-.178.661c.244 1.683 2.312 1.204 3.658 1.593-.375 3.462 2.333 3.3 3.74 4.669 2.931 6.042 5.326 11.213 7.064 19.289 1.82.627 2.733-.027 4.365-.574 2.638.381 4.282 1.928 6.482 2.815.41 1.521-.036 1.434.886 2.587.848.51 1.717 1 2.45 1.65 1.746 3.707 3.968 7.566 4.404 12.024.236 2.336-.21 4.733 1.077 7.781.411 1.001 1.137 2.107 1.709 3.418.954 2.195 1.922 6.194 4.633 7.235 3.184 9.916 3.67 20.522 9.327 27.046 2.216-2.069.956-7.664 3.24-9.674 4.731-.232 6.748 2.671 8.98 5.331 1.12.326.998-.644 1.966-.493 1.145 1.967 3.061 4.771 3.468 8.136.102.791-.541 2.045-.306 2.629.541 1.179 2.44 2.904 3.295 2.924 3.373.05 3.97-4.935 4.495-8.429 2.951-.594 3.849 1.229 6.04 1.544 1.633 5.447 9.186 9.27 13.726 4.719 4.342 1.571 4.444 8.07 9.861 8.354 3.295 5.184 6.446 10.531 12.019 13.073.202.803.887 1.051.872 2.131 2.699 1.441 5.385 2.937 7.369 5.399 1.34 1.659 1.743 4.413 3.774 5.505-.243 1.342.731 1.261.493 2.586 4.141 6.168 9.778 10.568 13.747 16.929 3.712.935 4.32 5.471 7.433 7.12 1.642 6.105 9.926 6.695 8.876 14.464-3.241 2.055-4.036-.907-5.687-2.841-1.356-1.606-3.28-2.367-3.679-2.925-.809-1.076-1.216-3.472-1.76-4.281-2.782-4.293-6.801-5.674-8.72-10.132-2.813-1.671-3.397-5.957-7.009-6.694-.301-2.525-2.32-3.029-2.974-5.114-5.845-6.419-13.176-11.445-16.629-19.428-2.29-1.712-4.941-3.678-7.776-5.807-.833-.617-1.894-1.132-2.455-1.654-1.503-1.348-2.044-3.75-3.739-4.632-4.698-2.486-10.188-.342-15.566.088-2.851 5.704-.409 16.21 5.835 18.491.972 5.69 12.973 12.039 13.322 16.062.168 1.973-1.387 4.778-3.837 4.477-2.224-.277-2.342-3.009-3.755-5.09-3.711-.644-5.35-3.678-7.788-5.803.587 3.723-2.65 5.897-3.672 9.262 1.109 5.924 7.666 6.79 11.156 10.89 2.382 2.823 3.001 5.724 5.485 8.521 5.256.542 5.57 4.349 9.076 8.801 2.79 3.553 5.521 4.616 6.327 9.776 2.689 2.137 6.107 3.4 7.044 7.575 3.972 1.7 6.208 5.386 10.223 7.037.191.822.899 1.068.866 2.132 1.648.65 3.132 1.443 3.699 3.346 3.318 2.623 7.666 4.021 9.473 8.382-5.89-2.313-12.25-4.046-15.875-9.021-1.978.155-3.44-1.968-5.276-2.853-1.018-.467-2.547-.214-3.619-.736-1.083-.531-2.511-2.239-4.101-3.352-1.395-.962-3.335-1.604-4.488-2.426-.641-.503-1.034-1.704-1.664-2.133-.625-.417-1.385-.026-2.002-.357-1.207-.682-1.904-2.314-2.902-2.935-.488-.318-1.526.083-2.403-.357-1.042-.519-1.605-2.14-3.651-2.047-3.185.161-3.722 3.487-6.213 5.009.129 3.052.5 6.366-.923 7.831-3.936.546-5.98-3.011-9.614-1.402-5.396-1.954-9.37-5.599-13.103-9.538l-3.577.125c-1.728-3.097-2.864-6.89-6.638-7.586.831-3.086.635-4.883-1.426-6.47 1.323-2.306.193-3.972-.614-6.057.932-.74 2.865-.435 3.127-1.866.017-.76-.522-.892-.457-1.702-3.092-.082-3.97 2.093-5.868 3.241-4.014.762-5.872-.958-9.591-.525l-.611-.215-.178.662c-2.328-1.911-5.175-5.153-5.925-9.788-.291-1.849-1.413-4.018-1.413-6.468-.008-.69.536-2.382.296-3.049-1.038-2.717-3.957-2.142-7.299-3.223-1.311-.43-4.137-2.572-5.687-2.841-1.129-.214-3.002.287-3.977.139-.856.737.145 2.342-1.554 1.353l.176-.666-.595.242c.053-2.538-1.794-6.555-4.561-5.5-1.582.613-4.367 2.467-3.835 4.933-1.479-.508-1.11-3.222-3.276-2.944-1.161.417.549 1.077.076 2.174-.529-.132-.656-.734-1.236-.832l.181-.647-.589.242zM206.857 428.635l.229.843c-2.311.261-4.282.111-4.92-1.716l.583-.599-.232-.859c2.309-.258 4.408-.248 4.931 1.754l-.591.577zM160.095 634.229c-.084 1.938.116-2.352 0 0zM450.647 528.71c1.154 1.292 2.5 2.296 3.86 3.291.089.573-.048.878-.345 1.008-1.759.934-3.884-1.597-4.983-3.277l.726-.523.742-.499zM449.12 504.91c-.446.441-1.081-.417-1.87-.346.399-1.68 1.093.12 1.87.346"/><path d="M361.043 489.213c-.421-.063-.216-.403-.014-.41.058-.342-.156-.369-.39-.391.009-.391.452-.315.736-.435-.057.361.159.39.386.396-.083.441-.728.308-.718.84M210.666 460.809c.831-.834 2.136-.277 3.163-.111-.626.7-3.134 2.263-3.163.111M357.351 431.368c-1.324-.255-.112 1.01-.755-.397-.342-.746.725.43.015.423.523.013.868-.817.712-.839.485.075.397.878.028.813M210.608 418.415c3.16 1.322 6.878 2.023 8.247 5.371-3.416.734-6.902-1.96-8.592-4.558l.575-.222-.23-.591zM83.762 404.206c-.935-.099-1.552.12-1.998.487.49 1.241.98 4.083-.235 4.761.172.563.73.661.86 1.259l-.677.329-.511.585c-3.493-1.385-4.44 2.128-3.807 6.157-1.42.365-2.809-1.245-3.205.542-.45 1.408 1.314.272.864 1.694l-.804.028.03.854c-2.91.67-3.73-1.076-6.458-.63-.896.215.08 2.271-.717 2.602-2.457.135-2.238-2.799-4.133-3.304-1.026.09-.593 1.628-1.125 2.201-1.487.352-1.058-1.487-1.682-2.103-.961.451-1.01 1.777-2.772 1.384-2.154-3.869-4.564-8.002-9.51-7.412.47-2.979.232-8.055-1.941-9.4l-.805.028.176-.795-.61-.494c1.738-2.019.29-6.086-1.06-7.275.71-1.212 1.462-2.41 2.283-3.528-.317-.389-.758-.621-1.24-.804.247-1.975 2.16-2.308 1.438-5.225 1.192-.056 1.315-1.169 2.366-1.389-.638-1.849-.234-2.637.66-3.904 1.652.297 1.381.04 3.217-.112.46-.768-.05-2.472.676-3.89 2.139 2.439 3.85-.115 5.574-1.498.546.42.84 1.125 1.269 1.694 1.93-.968 4.245-1.569 6.343-2.395l-.17.675.613.196c-.128.574-.69.693-.766 1.314.465 1.691 2.432.318 3.635.293-.566 2.33 1.951 2.877 4.913 2.424.47 2.91 1.434 5.47 4.572 4.136.268 1.513-1.396 1.121-1.124 2.619 1.122 2.019 2.98 3.158 4.588 4.589-.005 1.475-.802 2.387.507 2.999l-.178.653.222.613c-3.365.334.227 2.133 1.303 2.562l-.178.644.613.196c-.495.777-.783 1.734-1.958 1.809.034 1.286.906 1.644 1.298 2.531l-.587.522.23.778zM201.343 412.94c-.531-.092-.162-1.221-.786-1.199.114-1.011 1.068.357.786 1.199M93.247 403.859c.075-.441.713-.291.695-.828.442.067.236.385.013.392.588 1.163.317.449-.708.436M439.153 380.5c-1.193-.827.373-1.918 0 0zM311.281 373.955c-.507 1.578-1.679-.76-1.92-1.714.55.162.953.495 1.512.658.082.411-.055.639-.349.721.02.344.466.276.757.335M250.704 229.852l.015.436c1.052 2.043 3.455-.271 5.576.232.463 2.448-1.431 2.483-1.856 4.002 1.816 6.322 8.985-.876 11.58 2.194-.283 3.207-5.078 1.786-5.788 4.564.947 2.792 2.044 5.42 5.339 5.475l-.178.65.596-.24c.763 1.054 2.149 1.398 2.462 2.973.402 2.182-2.384 1.181-2.668 2.694.689 2.361 3.546 2.156 2.972 6.002.288.718 1.893-.12 2.03.773l-.59.24.221.651c-.151 1.155-.266 1.48-1.093 2.641.993 2.433 6.441-.343 6.064 3.711-1.56 1.15-3.019-1.111-5.558-.245-1.049 2.346-2.46 6.219-1.214 10.486 2.099 2.058 5.23 2.891 6.928 5.422l-.592.238-.178.65c-2.218-.907-5-.943-8.364-1.45-.995 1.503-1.529 3.485-3.417 4.04 1.185 2.29-.178 4.25-.182 6.529.098 2.143 2.188 1.954 1.755 4.725-2.023 2.146-4.667.245-5.615-1.531-2.042.274-.504 4.229-2.603 4.436 1.218 5.96 2.952 11.285 6.821 14.127l.121 3.463-2.369.082c-3.734-4.653-3.965-13.45-8.909-16.66-.981-.032-1.2.721-1.947.949.279.989.881 2.592.121 3.474-2.388.866-1.76-1.863-4.008-1.157-1.767 2.222 2.39 5.677.72 9.1l-1.977.069c-.424-3.567-1.312-6.154-3.793-6.39-3.452-.321-5.419 4.06-5.662 8.038-.126 1.879 1.273 5.23-1.814 5.271-.896-3.198 1.954-9.381-3.043-8.161.18-.633-.553-2.245.321-2.189-.824-2.034-3.397-2.031-5.636-2.406-1.867-1.731-2.437-4.968-3.834-7.27-2.296.166-2.405 2.568-4.659 2.783-.826-.665-1.001-2.146-.916-3.891-2.666-2.914-4.332-6.964-4.04-13.349-.678-.697-2.327-.272-3.576-.31-.322-1.577-.662-3.137-.579-5.202-.282-1.002-2.445.152-2.798-.766-1.372-3.569 2.406-7.115.393-11.338-.113-1.363 1.007-1.471.679-3.065-.782-1.039-1.002 2.013-2.715 1.412-1.502-3.108 1-4.903 1.732-7.042-.188-2.219-2.191-1.917-1.338-4.276.422-1.098 2.137-.904 2.704-1.854.025-2.433-2.059-2.38-2.14-4.694.909-.641 2.224-.82 3.127-1.426-.393-2.486.918-3.242.996-5.253l2.378-.083c-.103-1.538-1.191-1.905-1.316-3.443l.585-.237-.216-.654c1.074-.338.825.85 1.622.822.173-2.116 2.696-2.882 1.397-5.252.778-1.026 2.591-.989 3.512-1.882.268-1.662-1.937-.435-1.671-2.1 3.726.422 7.083-.437 7.76-5.057 2.246.21 3.575-.549 5.117-1.06a10.345 10.345 0 011.641 1.687c1.869.098.75-2.868 2.269-3.138 1.909-.425.676 2.813 2.084 2.986 1.959-.372 1.418-3.296 3.845-3.193.817 1.528-.038 2.382-.664 3.506 1.585 2.156 2.871-.931 5.137-.603 1.615-.417.813 2.049 2.422 1.652 1.767.513.799-1.715 2.345-1.394 1.097-.396 1.039.585 1.993.364.542 1.165 1.055 2.384.938 4.332l.793-.028-.171.647.576-.239zM388.13 307.833c1.135-.214 1.205.838 1.169 1.988-1.582.211-1.465-.955-1.169-1.988M437.318 285.866c1.003.719-1.369-.223-.805-1.594.308.191.618.401 1.131.351.014.395-.444.346-.72.437.08.325.379.395.394.806M432.567 280.714c.007.013.374-.013.374-.013-.169 1.375-1.624-2.085-.374.013M80.142 269.007c-.013-.392.438-.316.737-.419-1.624-2.337 1.8 1.445-.737.419M324.225 218.369c-.215.699-.858.264-.765-.387-.31-.065-.34.171-.346.426-.842-.775.671-.828 1.111-.039M351.7 210.409l-.728.026c.132-.772-.594-2.418.657-2.052.188.846-.223 1.078-.294 1.63.303.07.333-.168.337-.402.554.153-.023.347.028.798M158.599 200.363c-1.379-.237.232-1.364-1.157-1.582.469-1.2 1.342.629 1.157 1.582M48.671 85.264c.924.267-1.565.843-1.13-.351.59-.147.652.354 1.13.351M45.432 83.229c-.058.454-.366.233-.374.013-.314-.07-.34.168-.362.421-1.15-.481.376-1.237.736-.434M42.066 78.039c.592.866-.908.413-1.127-.354-.13-.466 1.026.19 1.127.354M223.978 601.596c-.083-1.132.816-1.214 1.704-1.273.208.322.393.648.398 1.2-.232.339-1.927.977-2.102.073M283.446 138.286c-2.002.165-1.266-4.116.611-3.361.499 1.951-.706 1.882-.611 3.361M269.636 106.134c.308-1.522 3.353-.765 3.177.696-1.112 1.027-2.21-.32-3.177-.696"/></g></svg>