<svg width="40" height="40" fill="none" xmlns="http://www.w3.org/2000/svg">
  <path fill-rule="evenodd" clip-rule="evenodd" d="M5.665 33.678c1.496 0 1.499-2.223 0-2.223-1.495 0-1.498 2.223 0 2.223zm1.511-23.445c1.496 0 1.499-2.222 0-2.222-1.495 0-1.498 2.222 0 2.222zm28.475 14.945c1.122 0 1.124-1.667 0-1.667-1.121 0-1.123 1.667 0 1.667zM6.071 13.425c-1.317-.75-2.113-2.296-3.566-2.869-.916-.36-2.291-.199-2.126 1.082.022.173.064.332.123.478.726 1.79 4.045 1.637 5.57 1.31zm29.156-3.368c.05-.04.085-.1.11-.169.15-.408-.219-.835-.672-.816a.567.567 0 00-.267.068c-.415.244-.721.669-1.04 1.042-.087.1-.123.322-.066.433.025.048.076.083.142.116a.695.695 0 00.615.001c.413-.203.837-.392 1.178-.675zm1.363 20.807c.534.643 1.193 1.121 1.924 1.515.429.232.91-.222.664-.629a4.855 4.855 0 00-.747-.97c-.319-.313-.806-.468-1.278-.638a.493.493 0 00-.627.272l-.003.007a.44.44 0 00.067.443zM28.504.207c-.458.695-.71 1.448-.856 2.238-.086.464.521.748.841.39.28-.311.525-.64.71-.996.201-.392.193-.882.203-1.365A.475.475 0 0028.926 0h-.008a.483.483 0 00-.414.207zm-12.445 39.58a.886.886 0 01-.064-.225c-.185-1.03.12-2.057.297-3.068.214-1.218.507-2.423.88-3.607.086-.276.178-.57.1-.85-.08-.279-.406-.514-.682-.397-.162.069-.275.24-.452.257-.531.049-.355-1.147-.885-1.092-.344.036-.293.55-.516.803-.243.273-.698.146-1.053.03-1.159-.379-1.213.829-1.591 1.533a6.203 6.203 0 01-1.82 2.09c-.836.606-.244-1.715-.1-2.05.405-.942.988-1.845.957-2.9-.007-.23-.048-.475-.211-.644-.67-.69-2.11 1.148-2.632 1.44-.07.04-.149.078-.228.062-.15-.032-.182-.223-.165-.37.096-.786-.45-.168-.815-.396-.107-.067-.123-.21-.193-.312-.132-.191-.429-.199-.655-.121-.226.077-.43.218-.667.257-.744.124-.575-.581-.265-.904a89.291 89.291 0 012.08-2.094c.268-.26 1.474-1.284.372-1.438-.221-.03-.473.002-.616-.205a.446.446 0 01-.043-.392c.096-.296.365-.472.55-.71.456-.586-1.601-.518-1.613-.54-.024-.04-.035-.086-.051-.13-.11-.28-.472-.408-.784-.369-.312.04-.59.202-.864.348a8.977 8.977 0 01-2.91.944c-.331.047-.683.073-.988-.057-.664-.285-.515-1.375.123-1.627 1.618-.641 3.308-1.086 5.061-1.184.26-.014 1.188-.032 1.248-.393.058-.354-.699-.5-.95-.59-.588-.209-1.114-.578-1.815-.715-.747-.146-1.85-.944-.642-1.39.352-.13.745-.159 1.104-.047.87.27 2.38-.483.973-1.085a67.632 67.632 0 01-2.264-1.033c-.141-.067-.307-.178-.273-.325.021-.094.12-.152.21-.193.899-.406 1.904-.195 2.854-.179 1.28.022 2.561.034 3.841.05.162.002.329.004.477-.056.149-.06.275-.199.264-.353-.029-.378-.934-.354-1.19-.47-.264-.12-.493-.352-.519-.632-.01-.107.01-.215.004-.323-.025-.419-.428-.722-.825-.9-.398-.177-.843-.299-1.14-.608a.392.392 0 01-.118-.202c-.02-.133.083-.26.21-.317.313-.144 1.343.043 1.51-.207.17-.256.334-.613.118-.836-.08-.082-.205-.137-.227-.247-.026-.135.128-.238.266-.275.76-.206 1.508.379 2.297.425a.383.383 0 00.19-.026c.45-.221-1.12-2.85-1.344-3.189-.088-.133-.137-.326-.017-.435a.344.344 0 01.159-.072c.579-.13 1.098.359 1.43.83.333.473.674 1.02 1.308 1.133.148.026.303.028.44.088.227.097.355.324.467.535.143.27.958 2.218 1.156 1.172.024-.127.046-.266.144-.354.123-.109.316-.097.476-.048.16.049.314.127.482.128.67.003-.241-1.356-.363-1.546-.553-.865-1.277-1.773-1.261-2.835.004-.226.048-.461.19-.643.142-.181.4-.294.624-.221.283.092.395.408.492.678.13.366.3.718.506 1.05.125.203.37.424.58.3.11-.065.164-.212.29-.234.221-.038.266.292.423.446.199.195.546.057.763-.118.218-.176.462-.398.74-.343.328.064.483.482.814.53.2.028.395-.099.5-.263.168-.26.243-.68.269-.983l.398-4.595c.033-.383.072-.785.356-1.084a.728.728 0 01.49-.234c.401-.017.609.306.748.61.859 1.864.26 4.065-.017 5.993-.058.405-.112.846.353 1.147a.98.98 0 00.43.152c.544.058 1.017-.238 1.367-.604.773-.806 1.046-1.94 1.696-2.84.054-.076.12-.154.213-.168.123-.02.236.09.262.207.025.117-.013.237-.052.35l-1.078 3.245a1.122 1.122 0 00-.054.53c.145.911 1.218.52 1.681.22 2.496-1.616 4.185-4.22 6.775-5.696.099-.056.231-.108.32-.039.055.043.068.119.07.187.026.551-.339 1.04-.688 1.481l-2.113 2.671c-.484.612-1.659 1.544-1.655 2.36 0 .251.184.52.446.532.238.012.891-.35.821.195-.017.134-.102.25-.183.361a7.966 7.966 0 00-1.054 2.02c-.104.3-.186.654.114.889.122.095.28.136.438.14.756.018 1.562-.36 2.308-.472.9-.135 1.748-.453 2.587-.778.349-.135 1.917-1.07 1.987-.214.07.835-1.976 1.802-2.604 2.152-.471.263-.981.505-1.384.863-.485.429-.476.793-.743 1.32-.248.49-.94.758-.976 1.302-.093 1.477 2.395 1.834 3.467 2.07.781.17 1.824.156 2.409.764.054.058.106.125.111.203.012.198-.258.282-.465.301-1.469.133-2.908.124-4.192.906-.142.087-.297.212-.28.373.042.391.918.226.753.851a.75.75 0 01-.223.35c-.345.321-.196.801.105 1.079.24.22.558.342.867.461a50.318 50.318 0 015.204 2.357c.173.09.355.19.45.356.093.166.053.416-.131.484-.115.043-.244.005-.36-.034a90.29 90.29 0 01-6.965-2.652c-.265-.113-.584-.225-.83-.078-.617.37 1.805 1.848 2.08 2.055.177.133.37.293.377.508.006.184-.128.344-.17.524-.122.502.453.877.919 1.137s.96.798.651 1.22c-.096.134-.26.223-.314.377-.076.219.11.434.279.599a19.823 19.823 0 011.791 2.018c.467.604-.352 1.348-.955.866l-.063-.05a4.731 4.731 0 01-.904-.981 14.358 14.358 0 00-2.773-2.935c-.299-.237-.724-.47-1.046-.263-.142.093-.22.254-.26.415-.237.977.692 1.85 1.068 2.754a.512.512 0 01-.092.556c-.269.274-.687.059-.941-.184-1.016-.973-1.393-2.404-2.437-3.348-1.078-.974-2.966-.002-3.179 1.357-.146.931.637 1.74.918 2.643a2.582 2.582 0 01-.085 1.756.54.54 0 01-.164.24c-.165.118-.416.049-.554-.099-.137-.146-.19-.347-.238-.539l-.829-3.325a.423.423 0 00-.39-.325c-.237-.006-.224.236-.372.306-.158.075-.312-.104-.391-.255-.171-.33-.643-1.607-1.223-1.053-.07.067-.111.16-.193.211-.389.245-.809-.706-1.182-.44-.106.075-.127.215-.185.328-.142.272-.487.368-.785.472-.956.334-1.07 1.732-1.397 2.526l-1.52 3.707c-.082.203-.172.415-.346.556-.174.14-.46.179-.621.024a.381.381 0 01-.08-.114z" fill="#000"/>
</svg>
