<svg width="40" height="40" fill="none" xmlns="http://www.w3.org/2000/svg">
  <path d="M29.355 19.861c.365 1.254 1.252 1.19 1.833 2.368.662 1.34.23 2.88.097 3.294-.16.495-.252.478-1.544 2.47-1.105 1.706-1.215 1.99-1.254 2.369-.058.552.154 1.192.579 2.47.507 1.527.716 1.675.675 2.265-.051.738-.466 1.767-1.35 2.059a1.662 1.662 0 01-.921.044 1.734 1.734 0 01-.817-.456c-.62-.693-.058-1.52-.386-3.294-.15-.819-.4-2.166-1.447-2.883a2.704 2.704 0 00-2.702-.206c-.873.468-.704 1.174-1.64 1.75a2.717 2.717 0 01-2.605.206c-.93-.52-.719-1.486-1.834-2.161a3.023 3.023 0 00-1.544-.412 3.657 3.657 0 00-2.315.823 6.87 6.87 0 00-1.255 1.75c-.967 1.604-.935 1.936-1.447 2.265-.658.423-1.754.548-2.412-.103-.674-.665-.59-1.847-.29-2.573.328-.792.817-.812 2.22-2.06 1.164-1.035 1.748-1.57 1.833-2.367.056-.527-.22-1.045-.772-2.059-1.16-2.127-1.753-2.273-1.93-3.397a4.751 4.751 0 01.386-2.47c.485-1.287.986-1.294 1.544-2.471a7.898 7.898 0 00.579-3.81 12.323 12.323 0 00-.58-3.293c-.6-2.072-1.047-2.128-1.543-3.81-.436-1.479-1.075-3.647 0-5.044A3.28 3.28 0 019.975.151c.56-.18 1.154-.2 1.722-.055 1.664.397 2.391 2.078 2.606 2.573.3.695.451 1.444.192 5.354-.212 3.207-.379 3.693-.096 4.838.212.857.765 3.098 2.412 3.5a2.927 2.927 0 001.834-.29 3.192 3.192 0 001.35-1.357c.4-.776.322-1.522.193-2.78-.199-1.94-.704-2.278-.868-4.117-.111-1.247-.197-2.199.386-2.986.778-1.051 2.175-1.032 2.412-1.03.3.005 1.604.022 2.316 1.03.585.829.438 1.855.29 2.883-.194 1.34-.538 1.49-1.062 3.294-.437 1.505-.7 2.45-.482 3.603.068.363.404 2.136 1.543 2.47 1.046.308 2.093-.794 2.316-1.029.302-.317.803-.948 1.544-3.809.607-2.343.544-2.972 1.158-3.397 1.02-.705 2.525.108 2.702.206.83.488 1.452 1.3 1.736 2.265.283.683.317 1.453.097 2.162-.228.575-.863 1.008-2.123 1.853-.577.324-1.126.703-1.64 1.132a3.59 3.59 0 00-1.158 1.647 3.227 3.227 0 000 1.75z" fill="#000"/>
  <path d="M6.873 27.65c-.03.342-.75.69-2.187 1.373-1.764.838-2.162.85-2.445.824a2.387 2.387 0 01-1.083-.313 2.562 2.562 0 01-.847-.785 2.634 2.634 0 01-.29-1.58c.07-.547.308-1.053.676-1.44.828-.787 2.062-.401 3.345 0 .912.285 2.901 1.091 2.83 1.922zM14.206 35.2c.581.419.152 2.01 0 2.574-.225.833-.512 1.898-1.35 2.161a1.348 1.348 0 01-.713.031 1.402 1.402 0 01-.639-.34c-.696-.714-.272-2.235.29-3.088.63-.957 1.868-1.73 2.412-1.338zM35.144 21.714c.429.669 2.217.054 2.992-.308.677-.318 1.444-.677 1.736-1.545.209-.617.194-1.542-.289-1.956-.759-.65-2.279.298-2.991.927-.908.8-1.845 2.263-1.448 2.882z" fill="#000"/>
</svg>
