<svg width="40" height="40" fill="none" xmlns="http://www.w3.org/2000/svg">
  <path fill-rule="evenodd" clip-rule="evenodd" d="M38.374 19.15c.533-.252 1.022-.123 1.398.356.285.363.3.781.06 1.181-.332.556-.814.658-1.358.442-.896-.355-1.81-.542-2.77-.477-1.325.088-1.912.525-2.034 1.652a1.76 1.76 0 00.048.713c.175.307.698.59.845 1.58.148.988-.445 1.27-.219 1.738l.404.508c.152.131.337.255.557.374.348.189.778.316.71.876-.042.356-.246.599-.592.648-.529.074-.754-.309-.938-.75-.113-.266-.207-.55-.366-.785-.321-.478-.632-.56-.935-.197-.026.046-.353.208-.56.733-.208.524 0 1.785.207 2.064.397.541-.09.618-.464.704-.337.077-.826-.05-.93.426-.104.483.34.734.638.985.555.467 1.225.716 1.863 1.019.427.204.763.514.478 1.061-.277.54-.728.532-1.182.263-.381-.226-.637-.592-.874-.979-.266-.436-.535-.875-.84-1.28-.299-.4-.693-.647-1.2-.502-.467.136-.558.57-.615.993-.139 1.05-.806 1.497-1.67 1.676-1.167.24-2.167.805-3.08 1.609-1.001.883-1.082 1.678-.219 2.73.258.313.613.604.356 1.096-.162.314-.436.458-.773.365-.517-.143-.593-.588-.612-1.071-.012-.292-.002-.595-.067-.875-.159-.685-.498-.84-1.055-.385-1.375 1.128-1.725 1.235-3 .289-.79-2.002-2.714-1.912-4.045-.795-1.218-.095-2.205-.66-2.93-1.774-.26-.398-.58-.754-.89-1.11-.318-.37-.714-.48-1.165-.32-.486.172-.619.596-.635 1.079-.02.555-.011 1.112-.013 1.668-.002.465-.055.922-.317 1.306-.332.49-.712.925-1.362.752-.465-.125-.863-.384-.976-.92-.14-.67.327-1.005.74-1.338 1.136-.923 1.185-1.11.534-2.377-.329-.64-.174-1.271.022-1.897.228-.727.578-1.146.148-1.694-.03-.039-1.654-.012-1.973.244-.32.256-.447-.636.53-1.192.975-.556.942-.35.806-.888-.137-.538-.548-.589-.913-.785-.73 0-1.642-.196-2.385.212-.518.09-1.12-.098-1.264-.408-.912-.982.73-.785 1.55-1.255a5.16 5.16 0 01.1-.27c.333-.848.474-1.658-.137-2.38-.628-.744-1.442-.909-2.341-.627-.378.12-.765.238-1.155.277-.579.06-1.095-.125-1.387-.72-.243-.494-.117-.957.206-1.36.418-.518.963-.576 1.496-.306.767.393 1.48.905 2.25 1.288.874.435 1.653.113 1.976-.73.296-.776.017-1.282-.755-1.378-.465-.059-.9.114-1.349.188-.452.077-.848-.086-1.104-.514-.171-.284-.104-.565.099-.808.358-.43.763-.3 1.166-.096.164.084.314.202.478.284.482.24.956.718 1.507.232.559-.497.736-1.185.626-1.945-.062-.424-.266-.787-.482-1.152-.449-.757-.323-1.383.45-1.632.794-.257 2.514-.525 1.537-2.501-.976-1.977.792-.139 1.378-1.293.587-1.155 1.367-2.017 2.297-2.662.542-.506.572-1.327.1-1.931-.244-.314-.507-.61-.736-.936-.27-.383-.415-.814-.183-1.275.159-.32.456-.39.757-.307.504.146.617.605.63 1.076.024.824-.082 1.193.423 1.884.356.486.73.508 1.173.425.249-.084.502-.159.763-.227 1.358-.353 2.695-.809 3.96-1.464.952-.495 1.171-1.015.947-2.139-.108-.544-.248-1.081-.332-1.629-.099-.643-.015-1.257.534-1.656.382-.274.78-.157 1.09.153.52.516.383 1.146.122 1.72-.46 1.008-.909 2-.71 3.174.226 1.338.832 1.696 2.018 1.176 1.349-.593 1.354-.591 2.28.635.58.77 1.548.71 2.048-.163.221-.384.342-.835.511-1.253.225-.55.595-.766 1.091-.434.464.308.555.78.234 1.262-.21.316-.504.565-.746.855-.584.699-.535 1.376.248 1.735 1.07.49 2.206.696 3.293-.004.49-.316.931-.255 1.352.094.367.302.553.714.386 1.207-.178.514-.555.808-1.064.742-.956-.124-.809.492-.67 1.096.102.442.444.681.768.933.918.712 1.579 1.599 1.77 2.853.135.877.372.94.993.357.206-.193.385-.42.593-.609.449-.408.909-.408 1.266.104.345.495.119.925-.266 1.278-.318.292-.712.347-1.108.392-.498.06-.876.289-.969.864-.098.614.106 1.106.613 1.407.738.437 1.5.494 2.261.045.345-.204.673-.45 1.031-.622zM10.931 37.249c.498-.443 1.085-.373 1.563.107.442.445.431 1.298-.025 1.649-.551.424-1.08.248-1.535-.145-.393-.575-.51-1.158-.003-1.61zm24.778-14.717c.318-.282.692-.238.997.069.282.284.275.827-.016 1.051-.351.27-.689.159-.979-.093-.25-.366-.325-.738-.002-1.027zM4.432 17.405c-.352.27-.69.158-.98-.093-.25-.367-.325-.738-.001-1.027.317-.283.692-.238.996.068.282.284.276.828-.015 1.052zm3.051 14.007c.205.206.2.601-.011.764-.255.196-.5.115-.711-.068-.182-.266-.237-.536-.002-.746.23-.205.503-.173.724.05z" fill="#000"/>
</svg>
