<svg width="40" height="40" fill="none" xmlns="http://www.w3.org/2000/svg">
  <path d="M11.065 26.649c1.702 1.116-2.35 5.08-.473 5.9 2.895 1.264 3.692-7.41 6.724-6.481 4.687 1.436-2.564 13.843 2.357 13.931 5.21.095-2.04-13.718 3.079-14.648 3.288-.597 2.235 8.947 5.45 8.062 3.418-.941-2.223-7.655.138-10.198 1.66-1.788 6.566 1.295 7.44-.945 1.127-2.887-6.77-3.86-6.408-6.922.47-3.964 8.666-3.246 10.186-6.961.77-1.879.649-5.117-1.284-5.926-4.717-1.972-8.835 10.17-13.233 7.613-2.977-1.73 3.833-8.925.667-9.971-4.263-1.41-2.883 12.118-7.3 11.308-2.411-.443.874-6.688-1.527-7.186-2.027-.42-1.73 4.17-3.602 5.054-2.131 1.005-6.005-2.599-7.055-.49-1.318 2.646 6.359 3.774 5.838 6.683-.418 2.33-6.314 1.034-6.243 3.4.056 1.853 4.728.536 5.04 2.363.823 4.827-13.273 6.256-10.496 10.294 2.222 3.228 7.445-7.015 10.704-4.878" fill="#000"/>
</svg>
