<svg width="724" height="123" fill="none" xmlns="http://www.w3.org/2000/svg"><path fill-rule="evenodd" clip-rule="evenodd" d="M712.732 63.611c-1.531.228-4.151-.06-4.828.574 2.555-.154 4.261.302 4.828-.574zm-8.043.574c-1.978.192-2.859-.238-3.618.382 1.538.029 2.928-.01 3.618-.382zm-4.02.19c-1.218.06-3.137-.21-3.214.383.526.194 3.099.205 3.214-.383zm-24.131.573c-1.359-.13-1.474.322-1.608.764 1.249.088 1.787-.166 1.608-.764zM615.795 35.35c-3.12-1.048-7.74-.957-11.256-.192 4.31.187 8.136.072 11.256.192zm-30.966 22.725c1.193.227 1.732-.805.801-.956-.067.222-.631.208-1.208.191-.035.332.092.594.407.765zm-14.476-25.78c-1.529-.084-1.893.378-2.827.573-.285.584.705.56.405 1.145-2.69-.07-4.31.375-6.436.573 8.562.655 15.589-.972 22.529.191 2.157-.974 7.558-.219 8.842 0-.447-.04-.618-.213-.8-.381 1.489-.31 3.961-.161 6.037-.192-1.756-1.613-5.766-1.331-8.449-.381.222-1.035 1.594-1.534 2.81-2.101-1.472.064-1.216-.695-1.606-1.146-1.047-.074-2.204-.098-2.817-.383 1.861-.393-1.021-.295-1.605-.954 1.092-.118 3.193.243 3.618-.19-2.399-.977-6.317-.402-8.848-1.528-3.261.278-8.843-.636-8.843.383.677-.102.195.843.804 1.717-.135.449-1.251.428-1.609.764 1.68.371-2.287 1.708-1.205 1.91zm-10.866 1.909c-.034.3-1.022.149-.806.573 1.98.257 2.814-.103.806-.573zm-.806 6.111c-.826.117-2.791-.308-2.41.381.827-.115 2.792.309 2.41-.38zM539.778 19.12v-.573c-.92-.055-1.506.046-1.612.381.541.06.771.273 1.612.192zm2.008.573c-.965.08-3.261-.662-4.02.19 1.285.227 3.595.228 4.02-.19zm-4.419.19c.008-.647-3.184-.767-4.024-.382 1.722.3 1.873.612 4.024.383zm-7.64-2.29c-1.531-.127-4.412-.498-4.824.38 1.561.39 2.881-.08 4.824-.38zM517.252 3.079c-1.174-.287-2.378-.537-2.817.19.839-.113 2.643.235 2.817-.19zm-10.454 29.215c-1.313.222-2.479-.582-3.214 0 .745.043 2.661.494 3.214 0zm-4.824-29.98c-1.3-.166-1.263.294-1.603.573.546.283 1.899.1 1.603-.572zm-6.845 14.514c1.505-.016 1.148-.214 2.411 0-.32-.934-2.503-1.275-3.615-.574.375.204 1.493.06 1.204.574zm-14.474 13.94c-1.186.05-1.24-.433-2.414-.383-.02.245-.518.264-.4.573.692.333 2.481.212 2.814-.19zM468.18 4.224h2.411c.472-.225.461-.675.404-1.145-1.746.28-2.746-.194-4.019.382 1.136.119.449.256 1.204.763zm32.586 28.454c-2.905-.997-8.062-.573-12.873-.573-8.789 0-15.806.294-22.125 0-.068.22-.631.206-1.202.19-.317.042-.476.158-.406.383 10.533.188 26.879.14 36.606 0zM456.12 4.607c.367-.812-.657-.961-1.607-1.146-.358.34-1.124.485-.805 1.146.711.355 1.023-.157 2.412 0zm13.268 19.667c11.351-.17 22.145-1.866 32.586-.955 1.757-.617 8.617 0 11.66-.953-6.776-.377-15.761-.091-24.133-.192-2.794-.034-5.25-.512-8.042-.572-4.489-.099-9.466.226-14.084.381-6.776.229-13.646.057-20.113.574-.007.244-.503.265-.402.572 4.998.251 16.597 1.235 22.528 1.145zm-63.543 69.7c-1.62.21-3.102-.622-3.618.191 1.445.114 2.673.316 3.618-.19zm8.843-88.605c1.266.23 2 .708 4.02.572.757-.043-.231-.312.402-.38 8.097.455 16.242-1.114 23.329-.382 4.443-.544 6.377-.358 9.662-1.145-.198-.736-2.246-.596-2.814-1.147 2.057.026 3.962-.028 5.226-.382-.69-.077.079-.245 0-.574-10.752.249-18.644.767-28.957.956-2.967 1.453-8.434-.129-11.27 1.337-1.476-.427-3.069.23-4.823-.19-.127.375.539.377.802.573-3.939-.534-8.603-.608-12.878 0 .726.483 3.895-.192 4.031.572-.019.244-.513.265-.399.573-1.583.14-4.607-.403-4.432.572 7.099-.482 13.757-.26 18.101-.955zm-13.27 88.415c-.835-.072-4.26.555-5.634.19.238 1.121 6.374.326 5.634-.19zm-4.429-89.177c-1.498-.357-1.506.346-3.617 0v.572c1.98-.243 3.26.368 3.617-.572zm-2.412 14.512c-1.223-.803-4.285-1.235-6.031-.765 2.079.098 4.362 1.106 6.031.765zm-.808 8.975c-2.253-1.125-9.992-.99-13.267-.19 5.274.018 8.791-.297 13.267.19zm-9.245-21.58c-1.094.195-4.816-.094-5.625.766 2.156.2 5.739-.079 5.625-.765zm-2.41 84.597c-2.436.033-.28-.452 0-.765-1.3.148-2.381.399-3.215.764.412.202 2.87.394 3.215 0zm-4.828-53.851c-.61.032-1.492-.069-1.62.19 16.954-.113 35.598-.746 51.094-1.336 3.793-.145 7.798-.063 10.857-.383.718-.074 1.663-.548 2.41-.573.724-.022 3.918.414 5.226.383 8.443-.2 16.346-1.433 24.135-2.1-18.748-.156-34.05-.278-48.673 0-15.86.3-32.345 2.605-47.057 3.627.893.485 3.583-.589 3.628.192zm-.816-9.739c-1.594 0-2.412-.38-4.02-.38-.09.27-.653.322-.804.572 2.598-.183 3.942.49 4.824-.192zm1.222 63.97c1.961-.519-4.714-.834-6.448-.19 2.149.285 4.216-.252 6.448.19zm-7.656-.38c.118-.437-.088-.718-.802-.765-.402.382-1.777.3-1.608.955 1.229.055 1.563-.612 2.41-.19zm1.208-63.78c-3.779.216-6.375-.721-8.844.382 3.504-.458 6.419.863 8.844-.383zm-12.061 71.035c-1.065.13-2.057.302-2.81.575 1.214-.056 2.743.03 2.81-.575zm-1.204-70.462c-.059-.357-.265-.64-.804-.764-.516.262-.841.05-2.01 0-.3.837 1.331.764 2.814.764zm-4.019 70.462c2.744-.442 4.054-.055 6.835-.954-3.185.151-4.645.423-7.642 0-.022.244-.514.265-.399.572.627.02 1.389-.025 1.206.382zm2.009-4.774c-2.009-.96-6.649-.33-8.855-.382-.311.042-.462.162-.403.382 3.455-.213 5.418.032 9.258 0zm-4.436-78.102c-.943-.26-4.318-.357-5.228 0 1.58.102 3.553.626 5.228 0zm8.858 79.439c-4.112.351-11.635.124-14.485 1.145 4.813-.44 10.088-.193 14.485-1.145zm-15.689.383c.483-.888-1.596-.918-1.61-.192.699-.013 1.253.043 1.61.192zm-2.414.762c-1.601-.273-3-.286-3.62.384 1.461-.008 3.171.105 3.62-.384zm2.414-69.891v-.762c-2.941-.581-5.916-.298-9.652 0 .655.665.694.926 2.412 1.335.426-.71-.847-.616-1.204-.954 2.906.765 5.593-.28 8.444.381zm-7.642 70.275c-1.274-.286-3.169-.236-3.615.38 1.917-.169 3.041.147 3.615-.38zm-2.812-2.866c-1.598.07-2.456-.446-3.218.192 1.114.229 2.449.218 3.218-.192zm-3.622 0c-1.008-.38-3.203-.105-3.626.382 1.308-.083 3.48.253 3.626-.382zm3.622-83.64c.321.012.519.555 0-.188 12.039.086 21.307-2.429 31.771-1.338 3.101-1.444 8.878-.226 11.267-1.53-19.366.685-35.537 1.574-53.906 3.056v.957c2.722.413 8.156-1.04 10.868-.957zm-8.856 3.63c-1.486-.162-4.138-.138-3.215.572.39-.518 3.328.18 3.215-.573zm-2.012-.956c-.426-.376-3.332-.325-2.813.383.71.316 2.952.277 2.813-.383zm-3.615.573c.156-.965-2.622-.498-2.819 0 1.254.25 1.149-.051 2.819 0zm-16.084 78.675c.403.574-.907.338-1.62.381.072 1.152 2.861-.043 2.827.955.61-.598-.115-1.054-1.207-1.336zm54.298-3.055c.035-.492 1.561-.272 1.608-.765-10.213-.107-18.195.95-31.383.573-.33.776-2.124.45-3.617.382-.631.057-.943.486-1.608.572-3.273.433-8.26-.54-12.06.955 6.167-.883 8.948.517 13.668.956-6.593.53-14.003-.273-19.297 1.146 4.436.562 11.967-.014 16.08-.573.919.026 1.559 1.148 2.415.573-.449-.042-.621-.212-.806-.383 9.935-.249 26.785-.87 37.412-.572.325-1.239 3.354-.012 4.823-.382-.034-.682.747-1.084 2.011-1.145-.552-.393.128-.531-1.206-.765.93-.324 2.208-.482 2.009-1.337-1.72.394-3.719.654-5.226 1.148-1.724-1.273-2.398-.671-4.823-.383zm-68.383 5.538c.727-.33-.124-.752-1.204-.765-.112.5.149.823 1.204.765zm2.82-53.47c-2.071-.382-3.796-.54-5.63.192 2.296-.224 4.867.435 5.63-.191zm-13.269-21.195c-.68-1.093-2.482-.204-4.434-.381v.572c2.402-.046 2.732-.017 4.434-.19zm-11.67 74.665c2.206-.475 4.983-.253 7.236-.192.31-.718-1.045-.646-1.61-.955-.814.782-5.809-.478-6.429.764.493.023.952.056.803.383zm-2.009-52.133c-.543-.314-4.563.028-4.023.192 1.951-.196 3.308.454 4.023-.191zm-10.456-12.412c.059-.223-.065-.542.406-.573.964-.076-.233.87 1.202.573 1.079-1.248 4.731-.168 6.835-.764-.471-.03-1.148.034-1.208-.19h4.427c-1.3-1.106-6.502-.35-9.652-.572-1.702 1.436-6.271-.125-8.456.762 2.357.156 4.183.565 6.446.764zm-2.422 12.222c-1.801-.152-2.657-.042-4.826 0 0 .252-.703.175-.806.382 3.15.036 10.155-.002 5.632-.382zm-4.826-18.142c-.459-.16-1.077-.25-2.01-.19-.456.225-.456.676-.402 1.146.732.251 2.608-.179 2.412-.956zm-1.204 5.54c-.253-.805-1.84-.251-2.411-.574-.233.684 1.193.58 2.411.573zm88.892 4.39c-8.365.17-17.552.387-21.721 1.147.034-.3-1.171-.133-.4 0-1.193.56-4.238 1.876-7.238 1.718.231-.398.839-.618 1.207-.956-.943-.161-1.735.669-2.01.193.208-.285.399-.226.803-.766-2.366-.026-3.077.862-4.436 0-1.595-.188-1.204.572-2.811.383-.415-.593-2.516-.133-4.018-.572-1.096 1.163-8.446.194-12.868.572-1.664.142-5.051.923-2.424.954-7.433.6-15.044-.04-21.708.956 7.407.363 15.883.359 21.708.955-13.071-.057-24.19-1.04-34.99-.573.737 1.112-1.755.694-3.214.763 3.941 2.932 21.412 1.178 26.547 2.292.666-.004.227-.53.804-.573 6.904.167 16.079-.154 21.319-.954-.406-.43-2.195.413-2.816-.19 3.147-.29 7.489.187 9.648-.383-5.015-.135-10.152-.414-14.874-.382 2 .194 1.725-.395 2.011-.573 8.617.255 16.448.351 24.537.19 4.066-.08 8.818.129 12.862-.19 7.593-.598 15.406-2.13 23.332-1.53 8.143-1.766 20.319-1.13 28.956-3.053-12.255.224-24.11.29-38.206.573zm-80.034 53.66c-4.944-.234-10.227 1.268-16.901.765-.033.71.999.926 1.609 1.334 1.573-.76 3.752-.094 5.226-.954-.585.632.067.94.804.382-.414.541-.414.796 0 1.337-.951-.307-2.571-.305-3.617-.572v.762c2.319-.091 5.996.568 8.038-.38-1.24-.004-2.929-.205-3.619-.954 1.634-.264 1.428.34 2.014.572 5.801-1.154 11.761-.878 18.907-1.527-2.054-.44-7.766-.35-11.259-.383.175-.3 1.263-.163.804-.765-2.331-.13-.78 1.397-2.824.765.493-.021.952-.057.818-.383zm-15.292 2.482c.762.08 1.013.411 2.008.382v-.765c-.995-.026-1.663.098-2.008.383zm.802-62.06c-1.24.11-2.848.048-2.809.762 1.308-.075 2.595-.166 2.809-.762zm-3.618.762c-1.731.008-2.962.248-4.029.573 1.963.103 3.319-.082 4.029-.573zm10.454-2.864c-4.067-.004-11.89.875-15.277 1.911 4.077-.937 12.208-.729 15.277-1.911zm-18.503 3.437c-1.506-.098-1.829-.241-2.412.382 1.665.875 4.444.274 6.042-.382-1.885-.394-4.769.74-3.63 0zm-6.434 66.455c-1.238.248-1.563-.152-2.412.38.318.155 2.469.203 2.412-.38zm-15.691-69.892c-.757.085-2.422-.26-1.998.381.978.125 2.067.387 1.998-.381zm16.095 21.96c-3.711-.055-5.654-.464-8.041.573-3.025-.809-8.662.145-9.66 1.146 6.41-.075 11.555-.53 17.701-1.719zM210.364 93.02c-2.057.033-5.767-1.015-7.246 0 2.685.432 5.648.85 7.246 0zm-10.466-45.065c-1.673.721-.883-.84-1.605-.383v.764c.711-.043 2.01.193 1.605-.381zm3.22.954c-1.608-.162-2.895-.59-4.022.19 1.239.376 3.263.512 4.022-.19zm-3.619.382c-.996-.942-6.527.31-5.63.19 2.515-.073 3.905.368 5.63-.19zm-7.638-18.14c-.426-.798.848-1.294 0-1.719-3.081.577-6.587.949-8.856 1.909 2.673-.318 5.238.195 8.856-.19zm5.228-6.113c.502 1.497-1.933-.098-.405 0-4.754-.31-14.194 2.222-18.105 3.057 5.506-.325 8.25-1.652 12.48-1.529-3.506.693-7.632 1.093-10.466 2.101 3.72.03 10.405-.956 11.67-2.1.759.02.275.631 1.206.574-.047-.722 2.354-.286 2.412-.957-.633-.016-1.39.027-1.208-.381 2.195.055 2.803-.325 4.019.192 2.6-.61 8.697-.38 8.444-1.72 5.582.178 10.202-1.847 16.493-1.527-3.03 1.297-8.796 1.297-12.06 2.483 1.713-.364 3.611.022 5.628 0 3.861-.047 8.134-.887 9.652 0-.863-.312-3.014-.02-2.816.764 7.225-.5 13.265-1.42 20.919-2.102.665-1.085-2.011-1.579-1.208-2.1 1.38.68 2.39-.316 5.228 0 .412-.76.586-1.631.802-2.482-.286-.434-2.78.176-2.41-.573h3.213c.564.116.072.736.805.763.059-.24-.057-.52.406-.573 4.464-.49 8.752.624 13.275.765.506.016 1.216-.38 1.611-.381 1.563-.01 3.009.432 4.419.381 2.781-.102 4.835-1.197 8.054-.955V17.4c1.479.568 1.663-.76 2.813-.953.966 1.035 2.423 1.362 4.826.953.067-.286-.151-.705.4-.764 10.648-.894 20.056-1.807 29.361-3.627-20.827.36-43.661 2.05-62.349 3.627-2.471.209-5.491-.214-7.24.956-1.72-.478-6.038.017-9.648.38-8.59.865-17.044 1.817-23.328 3.055.243.266 1.555.03 1.61.383-3.008.332-4.31.37-6.03 1.147 1.089.117 3.181-.244 3.618.19-4.308.274-12.131-.167-15.694 2.101.705.478 2.69-.41 2.412.763-.951-.524-1.767-.009-2.809-.574zm-17.302 3.821c-1.422.023-2.55.189-2.813.763 1.505.013 2.309-.307 2.813-.763zm-.402 2.864c-.885.28-2.987-.023-3.216.572 1.504-.269 2.722.321 3.216-.572zm-2.411-.764c4.699.418 8.292-2.26 12.475-2.1-5.448-.154-10.91 1.304-14.488 2.674 1.633.26 1.427-.344 2.013-.574zm-2.816 18.713c6.101-.096 14.783-1.015 22.122-1.145-.283-.707.69-.82.404-1.528-5.466-.482-11.029.61-15.277 1.337.686-.01 1.021.147 1.206.382-3.263.3-5.95-.703-8.455.954zm3.619-25.397c-1.92-.022-3.779-.011-4.826.383 1.405.64 4.136.359 4.826-.383zm-3.619 7.066c-2.065.482-4.802.65-6.03 1.528 2.216-.372 7.205-.727 6.03-1.528zM157.26 35.73c-2.494.215-5.246.31-6.03 1.337 1.735-.577 5.114-.374 6.03-1.337zm-3.618-1.145c1.115-1.827 8.201-.82 8.859-2.864-3.758.182-5.939-.013-8.859 1.146-1.526-.473.522-.565-.399-.955-1.507 1.383-5.193 1.735-6.836 3.056 2.273 1.004 4.158-1.029 7.235-.383zm-14.872 81.731c-2.656.27-6.007.204-8.054.763 2.756-.221 6.687.119 8.054-.763zm-10.064-81.348c-1.631-.197-4.491.666-6.027 1.145 2.166-.306 4.866-.36 6.027-1.145zm-10.454 45.065v-.764c-1.183.015-2.271.07-2.007.764.769.357.722-.113 2.007 0zm-.399-1.337c-.025-.357.31-.402.803-.19.263-.888-.943-1.078-2.816-.955-.174.779.415 1.206 2.013 1.145zm-2.412.192c-.013-.507.218-1.125-.806-1.146-.356.34-1.127.485-.802 1.146h1.608zm-6.846-6.111c.596.357 1.62.507 1.62 1.147 1.42.295.239-.65 1.206-.573-.082.415.32.606 1.204.573-.07-.756.612.061 1.208-.384.087-.382-1.794-.773-.404-1.145.126.573.61.982 1.609 1.145.484-.039.241-.212 0-.38.517.01.549.243 1.207.19-.759-.596-1.425-1.236-3.214-1.337-.565.117-.072.734-.808.764-1.561-.65-1.702.055-3.628 0zm-.806 21.006c1.265.089 1.806-.166 1.608-.765-1.276.115-1.239-.356-2.01 0-.08.362.461.421.402.765zm-5.224-6.493c10.75-1.67 21.984-2.682 30.562-5.155-4.973.438-13.094-.618-14.875 1.336-1.73.515-4.663.463-6.029 1.146-3.023-.478-5.663-1.13-8.454-1.72-.539.6-.804.561-2.01.192-.412 1.404-.824 3.276.806 4.2zm5.641-14.322c-3.624.13-7.099.327-9.26 1.147 2.826-.067 7.349.146 9.26-1.147zm-8.457 11.65c1.286-.981.104-2.2.804-3.248-4.042-.092-2.997 2.758-.804 3.247zm-8.846-9.168c1.825 1.348 7.306-.573 9.65-.19.839-.94 7.109-.313 6.432-1.336-4.595.552-10.74 1.387-14.876 1.526.278-.962 2.092-.01 3.22-.573-3.173-.593-7.974.48-8.445 1.146 1.216-.209 2.756-.016 4.019-.573zm-.803 5.347c-5.293.01-10.258.538-13.68 1.528 4.665.288 9.635-.89 13.68-1.528zm-11.27-22.15c-1.363.05-3.258-.15-4.017.19v.572c1.183-.328 3.649-.049 4.017-.762zM61.947 106.77c-1.47-.327-3.275.023-4.03.572 1.296.037 3.764.345 4.03-.572zm-10.06 8.975v-.764h-1.61c-.619.678 1.366.116 1.206.572-.47.032-1.134-.033-1.206.192h1.61zm-6.031-9.739c.112-.629 1.39-.954 0-1.338-.235.342-.213.795-.808.957-.25.01-.482.027-.403.19.553-.009.89.09 1.21.191zm-3.221-.381c-.546-.06-.767-.273-1.605-.192-.069.478.608.597 1.204.765.298-.652 2.367-.047 2.41-1.146-.433-.179-.123-.706-1.204-.574-1.226.336 1.093.59 0 .764-1.423-.191.347-.845-1.206-.764-.011.449.69.562.4 1.147zm150.028-88.032c1.389.148 1.768-.18 2.01-.573-.703.012-1.251-.044-1.608-.191.091.36-.452.42-.402.764zM43.04 71.824c-.08-.155-.405-.19-.405-.382-7.741 1.194-13.15 3.168-19.306 4.393.012.695 2.089.405 1.608 1.334-2.194-.085-3.312.342-5.628.193-.405-1.4-3.158-1.684-3.618-3.055-1.77-.202-1.324.645-2.826.571-1.126-.925-3.032-.157-4.424-.572-1.352-.406-.86-1.66-3.216-1.72 3.943-1.11 6.499-2.692 12.472-2.1 3.471-1.022 7.309-1.873 10.857-2.864-.08-.698-.548-.732 0-1.337.747.627 3.17-.655 2.816.572 2.608-.478.149-.845.403-1.526 1.595.13 1.915-1.879 0-1.72 1.962-2 7.213-1.67 8.855-3.054 1.437.091 2.32.31 3.618 0 .16.46-.734.416-.404.955 1.232.138 1.183-.33 2.414-.192-1.985.652-2.561 1.966-3.621 3.055 2.866.183 3.976-1.35 8.044-1.145 2.296-.474 4.743-.925 7.635-1.528 5.285-1.094 13.886-.69 15.694-2.865-4.02-.267-16.013-1.009-24.938-1.145-2.377-.035-3.33.36-5.228.763-.341.982-3.467.648-3.214 1.911-.498-1.073-1.953-.486-4.032-.38.033-.272.067-.543-.4-.576.698-.542 3.34-.702 4.028-.19.429-.774-.218-.95 1.61-1.145-1.838-1.111-5.364-.612-8.05-.765-7.411-.418-15.936-1.074-24.139-.954C7.176 54.323 1.596 52.826 0 51.01c13.771-5.238 39.398-4.846 57.515-8.021 7.107-.533 13.065-.43 18.1-1.91 3.32.318 6.559-.093 9.648-.383 9.146-.854 21.185-2.236 26.96-4.582.928-.061 1.538.03 2.01.19.768-.52 1.161-.793 1.208-.763 2.63-.466 1.654.369 4.017.383.055-.607 1.667-.484 2.412-.766-1.594-.391-2.605-.004-4.822 0 1.093-.818 5.089-.254 5.631-1.335-.246 1.068 2.959-.106 3.213-.573 4.319.87 7.766-1.201 12.475-.765-.863.404.904.536 1.608.765-.022 1.09.976 1.702 2.01 2.291 1.988-.33 3.045-1.102 4.824-1.528-.77-3.855 11.223-4.647 16.9-6.682.009-.328-.303-.495-.809-.575 1.439-.064 3.553.024 5.228.384.277-1.14 3.238-1.01 4.022-1.91-3.513-.881-8.695-.081-11.257-.573-1.356.67-2.794.555-4.033.954-1.067-.382-1.195-1.208-2.412-1.526-3.583-.332-5.466 1.044-8.041.572 2.32-.565 5.123-1.84 9.248-2.1.469-.032.344-.35.401-.573 1.723.013 2.812.318 4.837.19-1.841-1.13-6.089-1.372-8.052-1.909.895-.829 2.918-.093 4.019.38 2.398-1.08 8.397 1.803 10.464-.19 1.493-.055 3.446.108 3.215-.763 2.057.177 3.817.323 4.827-.381-.367-.213-.747-.063-2.008-.192.973-.555 2.075-1.05 4.013-1.146 1.374-.075.637.844 2.416.573 1.435-.392-1.757-.162-1.208-.765 2.198.111 4.045-.106 6.044-.762 4.516.017 9.223-.028 13.67-.955 1.387.858 2.436-.447 3.217.572-.645.366-4.468.407-5.629.383.091 1.112 1.439 1.007 1.208 1.908 1.652-.405 1.652-.93 1.204-1.146.95-.376 2.538-.45 4.017-.572 1.886.024-.437.278 0 .764 2.667-.4 4.077-1.585 7.252-.764 4.569-.65 9.782-1.067 13.669-1.335 6.073-.426 12.117-.328 17.697-1.339-2.307-.524-4.292-.341-7.235-.763 3.138-.966 7.835.732 13.671 0v.572c6.601-.853 11.668-.914 18.104-1.335.918 1.53 4.164.16 6.029.572 1.032-.02.804-.638.804-1.146 1.595.286 4.895-.573 6.03.383 2.942-1.274 11.406-.724 14.485-.192 3.915.045 8.57-.92 14.081-.955.172-.001 1.296.405 1.611.383 1.225-.094 2.352-.66 3.615-.764 3.665-.306 8.042.19 10.856-.954-2.444-1.02-5.871-.003-10.054-.572-2.675 1.263-7.556-.042-9.658.762-1.365.013-1.493-.562-2.009-.954-15.462.636-29.555.962-44.638 1.526V9.952c15.76.143 26.685-1.656 41.421-.764 8.616-.894 19.035-1.202 26.546-1.719 9.636-.661 20.907-.06 29.774-1.717 1.492.37 2.435-.285 4.424.19 1.732-.947 4.822-.26 8.037-.38 4.586-.175 8.95-1.63 12.077-.383.593-.083-.164-.244 0-.572 1.009.487 1.34.11 2.811.381 14.074-2.068 26.706-1.57 40.213-3.245 5.387 1.08 11.98-1.006 17.3 0 6.189-1.455 16.84 0 24.937-.765.251.454 1.759.313 1.206 1.145 2.17.481 4.562-.734 2.009-.955 2.772-.313 6.032-1.088 8.858 0 1.723-.656 6.856-.772 11.256-.954.116.517-.563 1.415 1.205 1.145 1.702-.395-1.593-.984-.399-1.145 1.861.07 2.318.234 4.017 0 .206.6-.869.748 0 1.145 1.037-.02.806-.64.806-1.145 3.561.191 6.377.06 9.663.383 2.729-.74 4.994-.597 6.828.189 2.987-.257 4.781-1.166 6.034-.19 2.078-.032 1.953-.348 2.011-.573 1.964-.129 2.677.334 4.034 0-2.99.704 2.975.922 4.823.955 6.005.106 14.195-.109 17.687.381-.325.462-1.653-.598-2.412 0 1.102 1.075 4.467.13 5.628 1.337-2.759-.133-3.224-.09-6.03-.573-.543.127-.749.408-.804.764-1.585-.187-5.19-1.2-6.836-.572 1.266.289 3 .361 4.022.764-3.226.246-5.62.67-8.039-.956-2.667 1.339-11.314-.41-11.674.573-.285.803 5.009.017 7.253.765-4.321.214-11.695.068-20.113.19-.911-.08-1.289-.41-2.016-.572-2.466 1.45-8.532.432-14.076.763.042-.718 1.811-.132.8-.955-.425-.431-2.529-.072-3.619-.19-.458.792.85.745.805 1.337-1.594-.054-1.666-.074-2.414-.764-1.423.19.347.842-1.204.764.055-.471.055-.922-.402-1.147-2.412-.41-3.628.53-5.63.192-1.399.26-.712.785-1.204 1.145-14.993.446-27.618 1.288-42.642 2.29-10.447.7-21.66.108-29.359 2.293-27.735-.02-51.928 2.244-78.44 4.583 3.271.777 6.938-.29 10.868-.572 5.019-.362 10.588-.123 13.669-.956 2.665.472 5.871-1.094 8.456 0-2.104.794-2.997-.268-5.632.382-.955.56.769.709 0 .955-1.975-.081-4.017-1.025-6.442 0 3.814 1.22 6.008-.417 10.06 0 12.337-2.113 30.268-2.146 47.461-3.247 1.002-.031 1.256.295 1.613.574 2.561-.907 12.458-.425 18.091-.574 1.193.166-.931.287-.404.765-1.849-.07-2.306-.235-4.022 0-.11-.44 1.161-.213 1.205-.573-1.575.013-1.933.603-2.412 1.146-.401-.125-.412-.438-1.203-.381-.67-.039-.437 1.427-.804.381-1.081-.133-.771.394-1.208.572-6.973-.725-16.376-.168-26.141.382-7.064.397-14.761.62-21.321 1.146-.94.075-2.066-.272-2.814-.191-2.195.238-7.21 1.49-12.058 1.145-1.243.509-.588 1.153 0 1.72-3.196.115-4.055.028-6.043.19 8.625.932 18.906.907 29.759.765-2.085.928-7.615.493-12.059.762-.472.033-.341.35-.402.573-2.437-.483-3.492-.244-5.224-.19-8.25.26-26.122.616-33.795 2.292-1.046-.17-3.059.293-4.423.954-4.571.464-11.488.16-14.878 1.909 6.918.513 16.463-1.468 25.746-.953 18.204-1.758 37.437-2.014 53.491-2.674-1.537-1.424-2.631-1.304-6.432-1.528 1.861-.87 3.834-.35 7.235-.383 7.94-.07 15.702-1.216 18.908 1.53 26.869.103 57.893-.688 86.467-2.102-.206-.535-.581-.992-.799-1.527 1.293-.04.975.68 1.608.954 1.655-.153-.209-.786.804-1.146 7.047.41 11.269-.939 15.284.957 6.434-.615 17.667-.251 27.755.38 1.619.102 3.755-.643 4.022.572-2.356-.31-2.84.296-5.63.193v.954c.608.285 1.767.307 2.814.381 1.124-.187-.587-.51.405-.763 1.707-.43 4.992.981 8.047 1.146 1.541.083 3.344-.296 5.227-.19 1.552.085 3.253.549 4.824.572 4.4.062 9.57-1.118 13.268-.573-.289.176-.723.29-1.207.381 1.47.395 2.586.054 4.032 0v.765c2.013-.975 3.137-.352 6.03-.573-.008.378-1.102.243-.802.764 2.045-.171 3.926-.423 5.628-.764.759.337-.481.558.402.953 2.447-.27 5.432.146 7.238.193 1.364.564 1.38 2.291-1.208 2.863 1.014.62 3.675.983 2.814 1.91 10.969.594 20.47-.087 30.98 0-8.498.73-16.781.697-24.937.954-.55.487 2.402 1.841.4 2.483 1.28.36 1.677-.048 3.214.191 3.682 2.416 8.173 3.825 14.076 3.819-3.404.774-8.56-.467-11.662-.764.865.998.024.627.407 1.72 2.545.507 6.97.378 5.625-.382 1.974.465 5.511.425 6.431-.19.484.98 3.049.97 3.635 1.908.596-.084-.164-.244 0-.573 11.268 1.845 22.637.867 38.204 1.147-2.808 1.316-11.776 1.195-18.106 1.336-20.572.458-42.637.119-64.349.19-5.168.02-9.967.313-12.473.764-.951-1.013-3.422-.315-5.228.192-1.583.032.131-.293-.802-.573-2.903-.229-3.714.842-6.831.573.985.333.805.42-.808.382 4.077 1.22 13.647.374 13.265 3.437 2.369-.103 1.288 1.428 3.622 1.336-6.121.924-10.111-.268-16.079.572 2.487 3.657 14.665 2.608 23.726 2.675 1.31.04-.033.103-4.029.19-2.551.441-7.055-.042-9.654.382-.375.69 1.588.268 2.414.382-1.524.483-4.102.47-5.626.955-.032.477 2.849.538 2.814.382-1.459.684.827 1.86 4.422 1.72-1.34.54-.734.828-1.206 1.717 3.265.186 12.131-.341 13.681 1.528 2.149-1.046 7.13-.607 10.457-.572 9.664.097 12.021-4.108 16.091-7.449 2.164.274 2.399.29 5.223.192.24.691-2.08-.03-2.412.763.816 1.395 6.421-.162 7.638-.19-.47.526-1.135.67-.403 1.335h-4.419c-.667 1.085-1.318 2.175-3.215 2.676 1.183.944.985 1.14.399 2.29 5.766 1.864 18.84 2.022 24.54 1.719.687.182.809.633 1.605.764 2.297-.176 2.985-.066 4.421-.764 3.216.349 4.033 3.239 8.052 3.82.251.697-.275 1.016-.803 1.337-1.308-.017-2.484-.098-3.231-.383-1.204.827-1.228 2.217-3.214 2.674-2.284-.92-5.768-.414-8.443 0 .365-.335 1.412-.351 2.01-.575-5.285-1.288-10.797-2.534-18.101-1.908 1.414-1.102-1.332-1.223-3.218-.956-.29-.583.705-.561.402-1.145-1.11-.55-4.65.042-4.419-1.145-8.652-.042-12.65.015-19.31.572.398 1.459-2.749 2.53 0 3.438-1.129.582-2.471-.341-2.814-.764-1.885-.577-1.218.687-3.217.573.124.695-.073 1.242-.405 1.72-2.605-.31-4.452.272-6.833.573.463 1.108.198.376-1.206.763-.045.592 1.263.545.803 1.336 1.264-.212 1.058-.089 2.015.19 1.481-.41.676-.783 2.41-1.145-.841 1.39-5.539 2.59-8.044 3.819-.02.326.292.495.796.573-1.692-.296-3.02 1.19-4.422.954.261-.193.926-.196.804-.573-1.151-.334-.908.17-1.208-.572-6.136.306-9.169-.544-13.667-.19.159-.43 2.198.027 2.012-.575-.729-.292-1.233-.686-2.819-.571.048-.472.057-.922-.397-1.145-.763.153-1.486.317-2.418.381.396-.258 1.069-.381 1.61-.573-3.804-1.508-9.164-2.272-15.692-2.482.266.559 2.31.128 1.208 1.336.366.52.745-.51 2.01-.191 1.216 1.57.757 3.134.804 4.965-1.669.615-2.848 1.265-2.01 1.718 1.973.159 8.228-1.003 9.246.192-3.097-.052-9.317.011-11.258 1.145 1.174.974 3.146 1.56 6.432 1.527-7.603 1.65-16.789 1.368-24.533 2.865-.575.722 1.117.366.804.956-.932-.062-1.541.03-2.012.19.739.912.519 1.776 2.012 2.675 7.524-.369 12.992-.212 18.505-.766.504-.047.398-.38 0-.382 1.645-.235 3.298-.002 5.628-.572.965-.075-.214.87 1.206.572.596-.084-.151-.244 0-.572 2.23.261 4.055-.419 6.442.19-.686-.662 1.977-.482 3.22-.763-.645-.142.09-.934-1.204-.765.81-.432 2.1-.422 2.81 0-1.008.338-.288.316-.802.765 2.238-.623 5.127.085 6.429-.765-.446 1.138 2.149-.777.806-.382 5.032-1.477 8.27-.393 13.277-.38 5.276.013 9.487-1.843 12.866-.766 4.03-.162 12.521-1.54 16.093-.954.472-.03.331-.347.405-.571 5.704-.257 12.22-1.183 18.1-1.147.472-.032.331-.348.403-.573.953.115 1.824.273 3.213.19 3.221-1.672 9.317-.11 12.062-2.1h3.619v-.573c-7.247-.478-10.912.877-17.284.573.895-.731 3.972-.844 6.032-.954 3.593-.192 8.575-.478 10.448 0 1.7-.454 2.229-.422 5.626-.573-.308.424-.834.744-.792 1.338.38-.325 1.102-.494 2.416-.384.457-.225.447-.673.402-1.145 1.661 1.282 8.375.78 10.053-.764 1.51.147 1.913-.233 3.213-.19.632.276 1.077.633 2.01.762.555-.057.335-.478.401-.762 9.752-.175 19.575-1.472 28.555-1.91.508-.049.416-.381 0-.381 1.161-.156 3.007.349 4.84 0-.485-.25-.165-.303 0-.575-6.61-.775-13.559 1.24-21.723 1.337-.866.09-.771-.273-.804-.573-.863-.087-.771.274-.808.573-.706-.174-.666-.701-1.603-.762.712-.114 4.156-1.12 3.615-.383 1.113-.044 1.139-.606 2.01-.765 2.084.064 7.753-.094 8.039-.953 1.164.452 3.185.098 3.218-.573-1.642-.331-3.891.688-6.836.381 1.585-.916 4.826-.58 8.044-1.145 1.933.035-.687.33 0 .955 2.502.193 4.377-.61 5.64-1.338 1.286-.167.549.63 1.606.574 10.49-.353 17.15-2.226 26.953-1.529-.667 1.046-3.875.242-2.82 1.53-3.571-.17-5.099-.144-8.048.572 2.018.187 9.313.225 8.852-.764 1.014-.651 1.267.657 2.016.764-1.325.393-3.748.256-4.428.954-.189.2 2.183.04 2.412-.192.875-.031.183.679.404.956.265.402 2.34-.442 2.816 0-1.325.208-1.07.982-.404 1.145-2.174.278-4.561 1.244-6.847.383.056-.55 1.641-.184 2.023-.955-18.93 2.156-45.955 3.346-67.172 5.537-.745.03-.254.648-.805.765-5.86-.253-4.409 2.452-6.835 3.436.54.38.758.91 1.205 1.337 2.035-.034 3.134-.209 6.03-.191-.275 1.28 2.932.898 2.816 2.1-3.978.128-9.536.388-13.681 0-3.124-.293-7.028.49-8.844.192-.816-.135-.072-.99-1.208-1.147-.824.055-.801.51-1.206.765-5.032-.321-15.624-.056-18.501 1.91-14.845.268-31.338 2.292-45.855 4.01-.258.325-1.207.314-1.611.572-.39-.322-1.111-.49-2.412-.381-3.856 1.7-12.187.825-14.074 3.054 3.346 1.494 7.553.044 12.062.575-6.762.624-12.268.205-15.687 1.145-.702.192-.471.614-.804.762-2.436-.73-2.228.778-4.024.383-.308-.829-1.238-2.443-2.007-3.628-8.983.505-16.163 1.878-24.937 2.483 6.615-1.387 15.068-1.28 20.915-2.675-7.858-.643-17.747 1.994-26.547 1.53-1.01-.035-.976.426-1.604.573-4.411-.88-11.843-.11-16.899.38.159-.368 1.561-.151 1.208-.763-5.193-.613-6.928 1.871-10.858 2.482.07.9 2.161-.34 2.01.574-1.4-.156-1.549.283-2.812.19 1.723-.103.755-.911-.402-.382-1.009-.491 1.641-.863 1.204-1.72-10.3-.3-21.741 1.066-32.587 1.528-6.007.258-11.577 1.13-16.882 1.529v-.954c-4.977-.1-13.404-.618-16.093 1.144-6.826-.492-10.777.885-17.298.764 3.825 1.087 7.588.111 12.476-.19 1.651 1.082 7.075-.166 11.25.571-2.583.827-8.048.194-11.661.574.329.784 1.662-.099 2.416.383-10.061 1.264-26.452 1.045-36.608 2.673 5.55 1.014 10.627-.431 15.289-.191-.216.535-1.94.352-2.813.573 10.624.214 24.42 2.024 34.986.954.841.108.848.298.406.575 1.365-.321 2.467.418 2.414-.575 8.487 1.107 19.985.404 29.369.764.044.734-2.343.714-2.814.19-2.255.978-5.436-.015-8.458.956 2.044.739 4.054-.005 8.044.383-2.231 1.316 1.814.224 1.62 1.145-1.93-.148-2.598.297-4.436.192-1.057.338.897 1.017-1.608.763 2.193 1.286 8.178.421 12.476.763-9.375.646-20.506.18-32.577 1.529.816.437 3.332.067 4.824.19-11.533.946-23.304 1.227-35.403 1.145-9.913-.067-20.123 1.066-29.76.955-2.759-.032-5.445-.536-8.04-.572-4.389-.06-8.593.579-13.282.765-15.615.614-37.41.329-53.489 2.099-.918.053-1.521-.046-1.608-.383-2.632.467-5.572.8-8.443.956a2323.194 2323.194 0 00-64.759 4.393c-.034.633 1.182.066 2.006.571-16.63 1.548-36.413 2.703-54.293 3.819 24.959-.632 48.194-2.038 71.994-3.055-7.844 1.239-18.377 1.773-27.751 2.292 8.73.511 12.268-.634 19.697-.382-10.174 1.177-21.729 1.19-31.768 2.292-1.002.028-1.667-.1-2.01-.383-9.892 1.333-30.81 1.412-41.033 2.293.355.485-1.628.489-2.412.954-2.101-.241 2.162-.561.402-1.337 2.023.276 3.358-.412 4.023-.191.412-.574-.896-.338-1.61-.382 2.285-.319 3.989-.911 6.847-.954.103.308-.389.329-.402.572 15.002-.369 31.935-1.473 47.854-2.1-10.257-.669-25.777 1.642-37.4.765-.643.329-1.22.693-2.816.572-13.694-.725-32.703 1.912-47.863 2.29-1.666.135.412-.667-.805-.954-6.994-.077-12.212.365-18.102.382 3.213-.635 7.945-.556 11.673-.955-5.935-.492-21.358.409-27.769.382.369-.939 3.356-.452 4.838-.572 9.949-.808 18.554-1.776 28.152-2.292.368-.14.611-.348.806-.572 1.378.082 2.249-.076 3.214-.191-1.193.545.967.349 2.01.381.541-.058.332-.479.406-.764 9.315-.679 16.069-1.654 24.533-2.481 1.181-.203 1.404-.864 2.009-1.337 1.15.253-.31.849-.397 1.145 14.067-1.68 30.411-2.925 45.448-3.628-1.954.855-5.883.772-8.841 1.145.352 1.099 3.293.98 6.031.955-6.45 1.744-17.371 1.101-24.541 2.865 6.331.261 17.885-.957 23.333-2.101 1.033.246 1.261.395.804.956 17.273-1.105 38.752-2.599 55.501-4.393.509-.047.404-.379 0-.383 9.019-.809 20.709-1.739 26.145-3.054.871.032.184-.678.402-.955 2.526.054 3.436-.664 6.04-.573 1.381-.232 2.126-.772 3.217-1.146 11.588-.932 24.479-2.244 34.986-3.055.325-1.149-2.156.132-2.007-.764 2.318-.087 4.389-.228 5.628.572.471-.031.347-.347.402-.572 9.5.082 21.594-.97 31.38-1.72.084-.325-.687-.493 0-.572-5.672-.362-14.185.42-20.515.573 11.406-1.033 18.321-1.135 28.557-1.718 2.424-.138 4.536-.055 5.628-.954-.918.137-2.055.168-2.814.381-.325-.414 3.295-.593 4.823-.764-.099.394-1.491.18-1.608.572 5.261.296 13.452-1.367 20.116-1.145-8.114-.769-13.578-.442-20.919-.19-.505.047-.403.378 0 .38-14.761 1.664-26.959 2.367-41.433 3.247.482-.347 2.102-.151 2.816-.382-5.135-.319-11.822.795-16.081.957-.716-.405-.037-.556 0-1.148 5.306.24 12.953-1.424 19.707-1.146 1.942-.672 3.655-.514 6.836-.762-1.663-.965.987-.798 1.61-.956-7.962-.235-13.588-.825-20.919-.19 1.761-1.15 5.676-.102 8.443-.765-8.696-.35-25.832-.237-33.38.955-1.527.242-6.993 1.007-11.256.765-3.354-.19-8.27.384-12.475.19-1.216.185-2.137.51-3.214.763-3.746-1.435-11.639-.336-16.497-.38.072-.355 1.367-.117 1.608-.382-.618-.849-2.869-.111-2.41.189-9.776.723-28.569-.233-35.792 1.529-1.265-.109-4.699-.24-7.248 0 2.846-.707 6.327-.827 9.258-1.145-.06-.355-1.367-.117-1.611-.384 1.427-.376 3.553.493 6.03 0-.745-.367-.734-.149-.399-.762-1.094-.437-2.553-.699-4.822-.574-1.518-.377 1.916.048 1.603-.38.862.353 2.941.127 4.424.188 1.713.55 4.628.902 6.03.383 5.101.485 10.133-.96 16.094-.383.156.46-.737.416-.405.956 10.031-.563 16.671.282 24.137-1.528-.516-.458-1.473-.703-1.208-1.528-.206-.374-2.975.268-2.816-.381 6.23.091 10.387-1.093 15.28-.573.712-.177 2.159.005 2.009-.572.928.406 5.259.733 6.043 0 2.835.915 8.12.228 10.051-.574 1.343-.012.141.562 1.204.955 2.332-.182 6.57-.185 10.867-.765-1.503-.44-4.124.32-6.044-.19.874-.84 2.943.036 4.436-.382-.516-1.108-3.721-.294-5.64-.383-.138.384.093.597.805.575-4.928.43-8.695-.598-15.679.38-.472-.03-.346-.347-.402-.572-11.856.538-25.786 1.246-37.011 1.91.092 1.157 5.203-.393 5.64.955-6.72.155-13.359.76-21.723.571-.47.07-1.018.337-.4.384-11.922-.388-29.291.595-41.432.762.092-.206.792-.128.808-.38-6.15-.407-12.823-.177-18.108-.192 9.008-1.478 19.377.066 27.756-1.145-2.243-.551-4.863-.294-7.642-.19.969-1.046 4.92.019 6.833-.956 6.801-.42 19.909.564 26.547-1.72 1.265-.037 2.953.13 3.618-.19-1.973-.776-4.538.147-7.638.383.826-1.01 4.72-.56 5.632-1.529-.657-.212-3.84.686-4.428-.38-12.906 1.438-31.848 1.636-41.016 3.627-2.183-.025-5.156-.79-6.041.19-4.077-1.742-10.603.365-15.679-.572-2.321-1.384-4.01-3.062-8.456-3.438-.608-.787-1.656-1.374-2.415-2.1-8.427 1.019-16.49 2.426-25.74 3.627-.539.06-.33.48-.398.765-4.689.165-9.661 1.751-14.083 2.673 1.067 1.514 10.15-.706 13.681.381 8.786-1.39 15.643-.6 24.129-1.335 1.269-.09 1.069.514 2.012.573 1.598-.6 4.779.681 6.032-.764 3.366.635 7.039.542 9.659.955-14.334 1.572-28.842 2.227-45.454 2.865-.586.043-.134.568-.801.572-.862-.229-1.931-.36-2.413-.764-6.927.915-17.252.78-25.743.956-12.99.266-28.681 1.828-41.429 2.29.206-.154.424-.31.402-.572-.528.577-2.506.469-3.218.954-1.8.157-1.8-.547-2.816-.764-1.792-.151-.792 1.025-2.412.955.404-.64-3.18.05-3.213-.38-.705.79-1.862.617-3.23.762 2.65 1.8 7.03 2.774 12.075 3.438 5.637 4.035 20.25 1.585 32.976.954 12.784-.632 24.178-1.717 37.41-1.718 2.297-.914 5.722-.263 7.642-1.146 12-.67 26.038-1.828 40.224-2.482.883.103.575-.365 1.204-.383 2.391.051 4.53-.017 6.031-.382 1.196.58 4.243.28 6.03.573-8.752.124-19.823.653-27.748 1.719 1.491.965 5.143-.188 8.052.191-2.723.795-6.973.346-9.26.954-1.826-1.329-5.856.1-7.638.575.127-.443-.072-.734-.404-.956-1.801.868-5.637 1.568-8.049.572-4.926 1.238-13.256 1.206-19.699 1.719-8.101 2.414-22.39-.293-29.778 2.483-3.913-.901-11.783.025-16.078.572 10.12.847 17.517-.049 26.544-.762.747.026 1.345.125 1.608.381 9.18-.468 19.071-1.217 28.153-1.338 2.679-.035 5.53.331 7.639-.572 1.333.197 3.079.197 4.033.572-1.023.664-4.355.227-4.033 1.53-.528-.322-2.687.318-3.617-.192-6.384 1.15-14.724.737-18.503 2.674 2.64.21 4.389.845 7.247.954-.655.503-1.448.177-2.01.956-7.87-.185-12.867.667-22.123 1.144-.76.217-1.94.226-1.609.955-2.641-.702-4.398-.088-6.832.574.643 1.445 4.2.387 6.429.381 1.805-.004 3.563.392 5.631.192-2.94 1.017-7.916.019-10.853 1.145 2.158.914 6.349.33 8.84.19 1.221.186 2.147.506 3.618.574-7.052.467-17.114-.127-22.523.573-.91.396-1.608.89-1.608 1.719-1.195-.335.23-1.018 0-1.53-3.79-.307-13.83-.884-15.694.957-1.468-.129-2.227-.596-2.81-1.146-1.92-.034-6.836-.037-10.86-.192-3.72-.142-5.499-.487.81-.381 1.023-.302-.77-.684 0-1.145-2.841-.331-5.572.392-7.237-.573 1.215.554.434-.399.4-.383 2.574-1.215 14.993-.065 18.095-.764.206-.242.709-1.087.803-1.911-3.632-1.847-6.49-3.001-12.87-2.863-.893-.404-1.78-.81-2.41-1.336-1.47.12 1.083.963-.805.765.99-1.301-2.422-.508-2.01-1.529.39.004.312.233.402.381 1.702-.316-.643-.511.402-1.145-.492.084-.826.245-.804.573-1.467-.13.084-.761-.4-1.528-.967.121.053 1.177-.803 1.338-3.529-.477-2.047-1.665-6.045-1.338-1.985-1.35-3.387-1.102-6.833-1.527.332-.223.526-.513.4-.955-.7.51-1.182.032-1.608.764-1.123-.003.955-.523-.802-.383-.3-.836.792.155.802-.381-1.045-.345-1.355.053-2.41-.383.382-.772.184-.878-.804-1.335 2.94-1.226 6.136-1.196 9.649-.572.55-.061.333-.479.4-.765 1.678-.094.633 1.1 2.015 1.145.87.032.181-.677.395-.953 1.268-.055 1.166-.4 2.414-.575.737-.101 1.804.231 2.427.19 3.811-.25 8.155-.787 12.462-1.144 2.765-.228 5.281-.132 8.842-.382 1.047-.075 2.036-.59 3.23-.572 3.824.055 10.432-1.28 13.669-.384 1.24-.933 4.985-.83 6.832-.954-.087-.786-3.918-.806-4.422-.763 1.258-3.166 12.257-3.35 15.69-6.11.602.37 2.564.703 2.014-.383.77.386 1.618.442 2.813.19-.608-1.37.241-.454 1.206-1.337-1.828-.844-1.977.015-4.424-.19-.744.347-.528 1.152-1.206 1.527-1.642-1.456 1.104-4.329-1.606-5.918-10.453.417-20.274 3.005-29.762 2.482-5.826-.322-10.317-2.536-16.094-1.91 5.147-1.379 8.846-3.44 15.694-4.011-2.748-.272-4.458-.58-6.443-1.528-1.301-.108-2.025.059-2.415.383-3.044-1.028-9.858-2.231-11.662-4.965-.515.328-1.317.52-2.41.574.322-.736 3.115-.304 2.815-1.337z" fill="#5900FF"/><path fill-rule="evenodd" clip-rule="evenodd" d="M90.45 60.82c0 2.7.51 5.19 1.53 7.47 1.02 2.28 2.4 4.26 4.14 5.94 1.74 1.68 3.765 2.985 6.075 3.915 2.31.93 4.755 1.395 7.335 1.395s5.025-.465 7.335-1.395c2.31-.93 4.35-2.235 6.12-3.915a18.537 18.537 0 004.185-5.94c1.02-2.28 1.53-4.77 1.53-7.47s-.51-5.19-1.53-7.47a18.537 18.537 0 00-4.185-5.94 19.239 19.239 0 00-6.12-3.915c-2.31-.93-4.755-1.395-7.335-1.395s-5.025.465-7.335 1.395c-2.31.93-4.335 2.235-6.075 3.915-1.74 1.68-3.12 3.66-4.14 5.94-1.02 2.28-1.53 4.77-1.53 7.47zm-18.45 0c0-5.04.93-9.735 2.79-14.085 1.86-4.35 4.44-8.145 7.74-11.385s7.245-5.775 11.835-7.605C98.955 25.915 104.01 25 109.53 25c5.46 0 10.5.915 15.12 2.745 4.62 1.83 8.595 4.365 11.925 7.605s5.925 7.035 7.785 11.385c1.86 4.35 2.79 9.045 2.79 14.085 0 5.04-.93 9.735-2.79 14.085-1.86 4.35-4.455 8.145-7.785 11.385s-7.305 5.775-11.925 7.605c-4.62 1.83-9.66 2.745-15.12 2.745-5.52 0-10.575-.915-15.165-2.745S85.83 89.53 82.53 86.29c-3.3-3.24-5.88-7.035-7.74-11.385C72.93 70.555 72 65.86 72 60.82zm115.57-16.56c-1.92-1.56-3.84-2.715-5.76-3.465s-3.78-1.125-5.58-1.125c-2.28 0-4.14.54-5.58 1.62-1.44 1.08-2.16 2.49-2.16 4.23 0 1.2.36 2.19 1.08 2.97.72.78 1.665 1.455 2.835 2.025 1.17.57 2.49 1.065 3.96 1.485 1.47.42 2.925.87 4.365 1.35 5.76 1.92 9.975 4.485 12.645 7.695s4.005 7.395 4.005 12.555c0 3.48-.585 6.63-1.755 9.45a19.719 19.719 0 01-5.13 7.245c-2.25 2.01-5.01 3.57-8.28 4.68-3.27 1.11-6.975 1.665-11.115 1.665-8.58 0-16.53-2.55-23.85-7.65l7.56-14.22c2.64 2.34 5.25 4.08 7.83 5.22 2.58 1.14 5.13 1.71 7.65 1.71 2.88 0 5.025-.66 6.435-1.98 1.41-1.32 2.115-2.82 2.115-4.5 0-1.02-.18-1.905-.54-2.655-.36-.75-.96-1.44-1.8-2.07-.84-.63-1.935-1.215-3.285-1.755a107.97 107.97 0 00-4.905-1.8 98.474 98.474 0 01-6.705-2.385c-2.19-.87-4.14-2.025-5.85-3.465s-3.09-3.255-4.14-5.445c-1.05-2.19-1.575-4.965-1.575-8.325 0-3.36.555-6.405 1.665-9.135 1.11-2.73 2.67-5.07 4.68-7.02 2.01-1.95 4.47-3.465 7.38-4.545S169.93 25 173.53 25c3.36 0 6.87.465 10.53 1.395 3.66.93 7.17 2.295 10.53 4.095l-7.02 13.77zm30.52 10.62l21.51-27.99h21.78l-26.91 32.13 29.43 35.73h-22.86l-22.95-29.43v29.43h-17.64V26.89h17.64v27.99zm63.28 2.34h3.33c3.48 0 6.15-.72 8.01-2.16 1.86-1.44 2.79-3.51 2.79-6.21s-.93-4.77-2.79-6.21c-1.86-1.44-4.53-2.16-8.01-2.16h-3.33v16.74zm38.79 37.53H298.2l-16.83-26.1v26.1h-17.64V26.89h27.45c3.78 0 7.08.555 9.9 1.665 2.82 1.11 5.145 2.625 6.975 4.545s3.21 4.14 4.14 6.66c.93 2.52 1.395 5.22 1.395 8.1 0 5.16-1.245 9.345-3.735 12.555-2.49 3.21-6.165 5.385-11.025 6.525l21.33 27.81zm17.02-41.67h25.47V26.89h17.64v67.86h-17.64V66.76h-25.47v27.99h-17.64V26.89h17.64v26.19zm46.27 7.74c0-5.04.93-9.735 2.79-14.085 1.86-4.35 4.44-8.145 7.74-11.385s7.245-5.775 11.835-7.605c4.59-1.83 9.645-2.745 15.165-2.745 5.46 0 10.5.915 15.12 2.745 4.62 1.83 8.595 4.365 11.925 7.605s5.925 7.035 7.785 11.385c1.86 4.35 2.79 9.045 2.79 14.085 0 4.68-.765 9.03-2.295 13.05-1.53 4.02-3.735 7.59-6.615 10.71l11.52 12.06-16.2 2.52-6.21-6.39a44.752 44.752 0 01-8.415 2.835c-2.97.69-6.105 1.035-9.405 1.035-5.52 0-10.575-.915-15.165-2.745s-8.535-4.365-11.835-7.605c-3.3-3.24-5.88-7.035-7.74-11.385-1.86-4.35-2.79-9.045-2.79-14.085zm18.45 0c0 2.7.51 5.19 1.53 7.47 1.02 2.28 2.4 4.26 4.14 5.94 1.74 1.68 3.765 2.985 6.075 3.915 2.31.93 4.755 1.395 7.335 1.395 1.56 0 3.12-.18 4.68-.54l-10.08-10.62 16.65-2.07 4.68 4.95c2.16-3 3.24-6.48 3.24-10.44 0-2.7-.51-5.19-1.53-7.47a18.537 18.537 0 00-4.185-5.94 19.239 19.239 0 00-6.12-3.915c-2.31-.93-4.755-1.395-7.335-1.395s-5.025.465-7.335 1.395c-2.31.93-4.335 2.235-6.075 3.915-1.74 1.68-3.12 3.66-4.14 5.94-1.02 2.28-1.53 4.77-1.53 7.47zm57.52 25.29c0-1.44.27-2.805.81-4.095.54-1.29 1.29-2.415 2.25-3.375s2.085-1.71 3.375-2.25 2.655-.81 4.095-.81 2.805.27 4.095.81c1.29.54 2.415 1.29 3.375 2.25s1.71 2.085 2.25 3.375.81 2.655.81 4.095-.27 2.805-.81 4.095a10.398 10.398 0 01-2.25 3.375c-.96.96-2.085 1.71-3.375 2.25s-2.655.81-4.095.81-2.805-.27-4.095-.81a10.398 10.398 0 01-3.375-2.25c-.96-.96-1.71-2.085-2.25-3.375s-.81-2.655-.81-4.095zm42.58-6.3h4.05c3.06 0 5.79-.48 8.19-1.44 2.4-.96 4.425-2.28 6.075-3.96 1.65-1.68 2.91-3.675 3.78-5.985.87-2.31 1.305-4.845 1.305-7.605 0-2.7-.45-5.22-1.35-7.56-.9-2.34-2.175-4.35-3.825-6.03-1.65-1.68-3.675-3-6.075-3.96-2.4-.96-5.1-1.44-8.1-1.44H502v37.98zm-17.64-52.92h26.1c4.62 0 8.955.93 13.005 2.79 4.05 1.86 7.59 4.335 10.62 7.425 3.03 3.09 5.415 6.69 7.155 10.8a32.795 32.795 0 012.61 12.915c0 4.44-.855 8.715-2.565 12.825-1.71 4.11-4.08 7.725-7.11 10.845-3.03 3.12-6.57 5.61-10.62 7.47-4.05 1.86-8.415 2.79-13.095 2.79h-26.1V26.89zm100 17.37c-1.92-1.56-3.84-2.715-5.76-3.465s-3.78-1.125-5.58-1.125c-2.28 0-4.14.54-5.58 1.62-1.44 1.08-2.16 2.49-2.16 4.23 0 1.2.36 2.19 1.08 2.97.72.78 1.665 1.455 2.835 2.025 1.17.57 2.49 1.065 3.96 1.485 1.47.42 2.925.87 4.365 1.35 5.76 1.92 9.975 4.485 12.645 7.695s4.005 7.395 4.005 12.555c0 3.48-.585 6.63-1.755 9.45a19.719 19.719 0 01-5.13 7.245c-2.25 2.01-5.01 3.57-8.28 4.68-3.27 1.11-6.975 1.665-11.115 1.665-8.58 0-16.53-2.55-23.85-7.65l7.56-14.22c2.64 2.34 5.25 4.08 7.83 5.22 2.58 1.14 5.13 1.71 7.65 1.71 2.88 0 5.025-.66 6.435-1.98 1.41-1.32 2.115-2.82 2.115-4.5 0-1.02-.18-1.905-.54-2.655-.36-.75-.96-1.44-1.8-2.07-.84-.63-1.935-1.215-3.285-1.755a107.97 107.97 0 00-4.905-1.8 98.474 98.474 0 01-6.705-2.385c-2.19-.87-4.14-2.025-5.85-3.465s-3.09-3.255-4.14-5.445c-1.05-2.19-1.575-4.965-1.575-8.325 0-3.36.555-6.405 1.665-9.135 1.11-2.73 2.67-5.07 4.68-7.02 2.01-1.95 4.47-3.465 7.38-4.545S566.72 25 570.32 25c3.36 0 6.87.465 10.53 1.395 3.66.93 7.17 2.295 10.53 4.095l-7.02 13.77z" fill="#FF0078"/></svg>